<svg width="0" height="0" class="hidden">
  <symbol fill="none" xmlns="http://www.w3.org/2000/svg" viewBox="0 0 82 24" id="androidApp">
    <path d="M78.6732 23.7143H3.32493C1.71933 23.7714 0.343109 22.4571 0.285767 20.8571V20.8V3.19999C0.343109 1.54285 1.66199 0.285706 3.32493 0.285706H78.7305C80.3935 0.285706 81.7123 1.54285 81.7697 3.19999V20.8C81.7123 22.4571 80.3361 23.7143 78.6732 23.7143Z" fill="black"></path>
    <path d="M78.9035 0.571429C80.2797 0.571429 81.4266 1.71429 81.4266 3.08571V20.9714C81.4266 22.3429 80.2797 23.4857 78.9035 23.4857H3.0965C1.72028 23.4286 0.630769 22.2857 0.573427 20.9143V3.08571C0.573427 1.71429 1.72028 0.571429 3.0965 0.571429H78.9035ZM78.9608 0H3.03916C1.37622 0 0.0573427 1.31429 0 2.97143V20.9714C0 22.6286 1.37622 24 3.03916 24H78.9608C80.6238 24 81.9426 22.6857 82 21.0286V2.97143C81.9426 1.31429 80.6238 0 78.9608 0Z" fill="#A6A6A6"></path>
    <path d="M29.4741 6.85713C29.4741 7.31428 29.3594 7.71428 29.0727 7.99999C28.7287 8.34285 28.3273 8.51428 27.8112 8.51428C27.2951 8.51428 26.8937 8.34285 26.5497 7.99999C26.2056 7.65713 26.0336 7.25713 26.0336 6.74285C26.0336 6.22856 26.2056 5.82856 26.5497 5.4857C26.8937 5.14285 27.2951 4.97142 27.8112 4.97142C28.0406 4.97142 28.2699 5.02856 28.4993 5.14285C28.7287 5.25713 28.9007 5.37142 29.0154 5.54285L28.7287 5.82856C28.4993 5.54285 28.2126 5.42856 27.8112 5.42856C27.4671 5.42856 27.1231 5.54285 26.8937 5.82856C26.607 6.05713 26.4923 6.39999 26.4923 6.79999C26.4923 7.19999 26.607 7.54285 26.8937 7.77142C27.1804 7.99999 27.4671 8.17142 27.8112 8.17142C28.2126 8.17142 28.4993 8.05713 28.786 7.77142C28.958 7.59999 29.0727 7.37142 29.0727 7.0857H27.8112V6.62856H29.4741V6.85713ZM32.0545 5.42856H30.5063V6.51428H31.9399V6.91428H30.5063V7.99999H32.0545V8.45713H30.1049V5.02856H32.1119L32.0545 5.42856ZM33.8895 8.39999H33.4308V5.42856H32.4559V5.02856H34.807V5.42856H33.8322V8.39999H33.8895ZM36.5273 8.39999V5.02856H36.986V8.39999H36.5273ZM38.8783 8.39999H38.4196V5.42856H37.4448V5.02856H39.7385V5.42856H38.7636L38.8783 8.39999ZM44.2685 7.94285C43.9245 8.2857 43.5231 8.45713 43.007 8.45713C42.4909 8.45713 42.0895 8.2857 41.7455 7.94285C41.4014 7.59999 41.2294 7.19999 41.2294 6.6857C41.2294 6.17142 41.4014 5.77142 41.7455 5.42856C42.0895 5.0857 42.4909 4.91428 43.007 4.91428C43.5231 4.91428 43.9245 5.0857 44.2685 5.42856C44.6126 5.77142 44.7846 6.17142 44.7846 6.6857C44.7846 7.19999 44.6126 7.65713 44.2685 7.94285ZM42.0895 7.71428C42.3189 7.94285 42.6629 8.11428 43.007 8.11428C43.351 8.11428 43.6951 7.99999 43.9245 7.71428C44.1538 7.4857 44.3259 7.14285 44.3259 6.74285C44.3259 6.34285 44.2112 5.99999 43.9245 5.77142C43.6951 5.54285 43.351 5.37142 43.007 5.37142C42.6629 5.37142 42.3189 5.4857 42.0895 5.77142C41.8601 5.99999 41.6881 6.34285 41.6881 6.74285C41.6881 7.14285 41.8028 7.4857 42.0895 7.71428ZM45.358 8.39999V5.02856H45.8741L47.5371 7.65713V5.02856H47.9958V8.39999H47.5371L45.7594 5.65713V8.39999H45.358Z" fill="#FEFEFE"></path>
    <path d="M29.5315 6.85712C29.5315 7.08569 29.4741 7.31426 29.4168 7.48569C29.3594 7.65712 29.2448 7.88569 29.0727 7.99998C28.9007 8.17141 28.7287 8.28569 28.4993 8.39998C28.2699 8.51426 28.0406 8.51426 27.8112 8.51426C27.5818 8.51426 27.2951 8.45712 27.1231 8.39998C26.8937 8.28569 26.7217 8.17141 26.5497 7.99998C26.3776 7.82855 26.2629 7.65712 26.1483 7.42855C26.0336 7.19998 26.0336 6.97141 26.0336 6.74283C26.0336 6.51426 26.0909 6.22855 26.1483 6.05712C26.2056 5.88569 26.3776 5.65712 26.5497 5.48569C26.7217 5.31426 26.8937 5.19998 27.1231 5.08569C27.3524 4.9714 27.5818 4.97141 27.8112 4.97141C27.9259 4.97141 28.0406 4.97141 28.1552 5.02855C28.2699 5.02855 28.3846 5.08569 28.4993 5.14283C28.614 5.19998 28.7287 5.25712 28.786 5.31426C28.9007 5.37141 28.958 5.42855 29.0154 5.54283V5.59998L28.6713 5.94283V5.88569C28.5566 5.77141 28.442 5.65712 28.3273 5.59998C28.2126 5.54283 28.0406 5.48569 27.8112 5.48569C27.6392 5.48569 27.4671 5.54283 27.2951 5.59998C27.1804 5.65712 27.0084 5.77141 26.9511 5.88569C26.8364 5.99998 26.7217 6.11426 26.6643 6.28569C26.607 6.45712 26.5497 6.62855 26.5497 6.79998C26.5497 6.97141 26.5497 7.19998 26.6643 7.31426C26.7217 7.48569 26.8364 7.59998 26.9511 7.71426C27.0657 7.82855 27.2378 7.94283 27.3524 7.99998C27.4671 8.05712 27.6392 8.11426 27.8112 8.11426C27.9832 8.11426 28.1552 8.05712 28.3273 7.99998C28.4993 7.94283 28.614 7.82855 28.7287 7.71426C28.786 7.65712 28.9007 7.54283 28.9007 7.42855C28.958 7.31426 28.958 7.25712 28.958 7.14283H27.6965V6.57141H29.4741V6.85712H29.5315ZM29.3021 7.42855C29.3594 7.25712 29.4168 7.02855 29.4168 6.79998V6.62855H27.8685V6.97141H29.1301V7.02855C29.1301 7.14283 29.1301 7.31426 29.0727 7.42855C29.0154 7.54283 28.958 7.65712 28.8434 7.77141C28.6713 7.94283 28.5566 7.99998 28.3846 8.11426C28.2126 8.17141 28.0406 8.22855 27.8685 8.22855C27.6965 8.22855 27.5245 8.17141 27.3524 8.11426C27.1804 8.05712 27.0657 7.94283 26.8937 7.82855C26.779 7.71426 26.6643 7.59998 26.607 7.42855C26.5497 7.25712 26.4923 7.08569 26.4923 6.85712C26.4923 6.62855 26.5497 6.45712 26.607 6.28569C26.6643 6.11426 26.779 5.99998 26.8937 5.88569C27.0084 5.77141 27.1231 5.65712 27.2951 5.59998C27.4671 5.54283 27.6392 5.48569 27.8112 5.48569C28.0406 5.48569 28.2126 5.54283 28.3273 5.59998C28.442 5.65712 28.614 5.77141 28.6713 5.88569L28.9007 5.65712C28.8434 5.59998 28.786 5.54283 28.7287 5.48569C28.6713 5.42855 28.5566 5.37141 28.442 5.31426C28.3273 5.25712 28.2126 5.19998 28.0979 5.19998C27.9832 5.14283 27.8685 5.14283 27.7538 5.14283C27.5245 5.14283 27.2951 5.19998 27.0657 5.25712C26.8937 5.31426 26.6643 5.48569 26.5497 5.59998C26.3776 5.77141 26.2629 5.94283 26.2056 6.11426C26.1483 6.28569 26.0909 6.51426 26.0909 6.79998C26.0909 7.02855 26.1483 7.25712 26.2056 7.48569C26.2629 7.65712 26.435 7.88569 26.5497 7.99998C26.7217 8.17141 26.8937 8.28569 27.0657 8.34283C27.2378 8.39998 27.4671 8.45712 27.7538 8.45712C27.9832 8.45712 28.2126 8.39998 28.442 8.34283C28.614 8.28569 28.8434 8.11426 28.958 7.99998C29.1301 7.77141 29.2448 7.65712 29.3021 7.42855ZM32.0545 5.48569H30.5636V6.45712H31.9972V6.97141H30.5636V7.94283H32.1119V8.51426H30.0476C30.0476 7.37141 30.0476 6.17141 30.0476 5.02855H32.1119L32.0545 5.48569ZM30.5063 5.3714H31.9972V5.08569H30.1049V8.34283H31.9399V7.99998H30.3916V6.85712H31.8252V6.57141H30.3916L30.5063 5.3714ZM33.8895 8.45712H33.3734V5.48569H32.3986V4.97141H34.8643V5.48569H33.8895V8.45712ZM33.4881 8.34283H33.8322V5.3714H34.807V5.08569H32.5706V5.3714H33.5455V8.34283H33.4881ZM36.4699 8.39998V4.97141H37.0434C37.0434 6.11426 37.0434 7.31426 37.0434 8.45712L36.4699 8.39998ZM36.5846 5.08569V8.34283H36.9287V5.08569H36.5846ZM38.8783 8.45712H38.3622V5.48569H37.3874V4.97141H39.7958V5.48569H38.821V8.34283V8.45712H38.8783ZM38.4769 8.34283H38.7636V5.3714H39.7385V5.08569H37.5594V5.3714H38.5343V8.34283H38.4769ZM44.2685 7.99998C44.0965 8.17141 43.9245 8.28569 43.6951 8.39998C43.4657 8.51426 43.2364 8.51426 43.007 8.51426C42.7776 8.51426 42.4909 8.45712 42.3189 8.39998C42.0895 8.28569 41.9175 8.17141 41.7455 7.99998C41.5734 7.82855 41.4587 7.65712 41.3441 7.42855C41.2294 7.19998 41.2294 6.97141 41.2294 6.74283C41.2294 6.51426 41.2867 6.22855 41.3441 6.05712C41.4587 5.82855 41.5734 5.65712 41.7455 5.48569C41.9175 5.31426 42.0895 5.19998 42.3189 5.08569C42.5483 4.9714 42.7776 4.97141 43.007 4.97141C43.2364 4.97141 43.5231 5.02855 43.6951 5.08569C43.9245 5.19998 44.0965 5.31426 44.2685 5.48569C44.4406 5.65712 44.5552 5.82855 44.6699 6.05712C44.7846 6.28569 44.7846 6.51426 44.7846 6.74283C44.7846 6.97141 44.7273 7.25712 44.6699 7.42855C44.6126 7.65712 44.4406 7.82855 44.2685 7.99998ZM43.6951 8.28569C43.8671 8.22855 44.0965 8.05712 44.2112 7.94283C44.3832 7.7714 44.4979 7.59998 44.5552 7.42855C44.6126 7.25712 44.6699 7.02855 44.6699 6.74283C44.6699 6.45712 44.6126 6.28569 44.5552 6.05712C44.4979 5.88569 44.3259 5.65712 44.2112 5.54283C44.0392 5.37141 43.8671 5.25712 43.6951 5.19998C43.5231 5.14283 43.2937 5.08569 43.007 5.08569C42.7776 5.08569 42.5483 5.14283 42.3189 5.19998C42.1469 5.25712 41.9175 5.42855 41.8028 5.54283C41.6308 5.71426 41.5161 5.88569 41.4587 6.05712C41.3441 6.28569 41.2867 6.45712 41.2867 6.74283C41.2867 6.97141 41.3441 7.19998 41.4014 7.42855C41.4587 7.59998 41.6308 7.82855 41.7455 7.94283C41.9175 8.11426 42.0895 8.22855 42.2615 8.28569C42.4336 8.34283 42.6629 8.39998 42.9497 8.39998C43.2364 8.39998 43.4657 8.39998 43.6951 8.28569ZM42.1469 7.65712C42.2615 7.7714 42.3762 7.88569 42.5483 7.94283C42.7203 7.99998 42.835 7.99998 43.007 7.99998C43.179 7.99998 43.3511 7.94283 43.5231 7.88569C43.6378 7.82855 43.8098 7.71426 43.8671 7.59998C43.9818 7.48569 44.0965 7.37141 44.1538 7.19998C44.2112 7.02855 44.2685 6.85712 44.2685 6.68569C44.2685 6.51426 44.2112 6.28569 44.1538 6.17141C44.0965 5.99998 43.9818 5.88569 43.8671 5.77141C43.7524 5.65712 43.6378 5.54283 43.4657 5.48569C43.3511 5.42855 43.179 5.3714 43.007 5.3714C42.835 5.3714 42.6629 5.42855 42.4909 5.48569C42.3762 5.54283 42.2042 5.65712 42.1469 5.77141C42.0322 5.88569 41.9175 6.05712 41.8601 6.17141C41.8028 6.34283 41.7455 6.45712 41.7455 6.68569C41.7455 6.85712 41.8028 7.08569 41.8601 7.19998C41.9175 7.42855 42.0322 7.54283 42.1469 7.65712ZM42.4909 8.05712C42.3189 7.99998 42.1469 7.88569 42.0322 7.77141C41.9175 7.65712 41.8028 7.48569 41.7455 7.37141C41.6881 7.19998 41.6308 7.02855 41.6308 6.79998C41.6308 6.62855 41.6881 6.39998 41.7455 6.28569C41.8028 6.11426 41.9175 5.94283 42.0322 5.82855C42.1469 5.71426 42.2615 5.59998 42.4336 5.54283C42.6056 5.48569 42.7776 5.42855 42.9497 5.42855C43.1217 5.42855 43.2937 5.48569 43.4657 5.54283C43.6378 5.59998 43.8098 5.71426 43.9245 5.82855C44.0392 5.94283 44.1538 6.05712 44.2112 6.22855C44.2685 6.39998 44.3259 6.5714 44.3259 6.79998C44.3259 6.97141 44.2685 7.19998 44.2112 7.31426C44.1538 7.48569 44.0392 7.65712 43.9245 7.77141C43.8098 7.88569 43.6951 7.99998 43.5231 8.05712C43.3511 8.11426 43.179 8.17141 43.007 8.17141C42.835 8.11426 42.6629 8.11426 42.4909 8.05712ZM45.3007 8.39998V4.97141H45.8741L47.4224 7.48569V4.97141H47.9958C47.9958 6.11426 47.9958 7.31426 47.9958 8.45712H47.4797L45.8168 5.82855V8.45712L45.3007 8.39998ZM45.4154 5.08569V8.34283H45.7021V5.48569L47.5371 8.39998H47.8811V5.08569H47.5944V7.88569L45.8741 5.08569H45.4154Z" fill="#FEFEFE"></path>
    <path d="M41.1147 13.3714C39.7385 13.3714 38.7064 14.4 38.7064 15.7714C38.7064 17.1428 39.7959 18.1714 41.1147 18.1714C42.491 18.1714 43.5231 17.1428 43.5231 15.7714C43.5805 14.3428 42.491 13.3714 41.1147 13.3714ZM41.1147 17.2C40.3693 17.2 39.7385 16.5714 39.7385 15.7143C39.7385 14.8571 40.3693 14.2285 41.1147 14.2285C41.8602 14.2285 42.491 14.8 42.491 15.7143C42.491 16.5714 41.8602 17.2 41.1147 17.2ZM35.8966 13.3714C34.5203 13.3714 33.4882 14.4 33.4882 15.7714C33.4882 17.1428 34.5777 18.1714 35.8966 18.1714C37.2728 18.1714 38.305 17.1428 38.305 15.7714C38.305 14.3428 37.2154 13.3714 35.8966 13.3714ZM35.8966 17.2C35.1511 17.2 34.5203 16.5714 34.5203 15.7143C34.5203 14.8571 35.1511 14.2285 35.8966 14.2285C36.642 14.2285 37.2728 14.8 37.2728 15.7143C37.2155 16.5714 36.642 17.2 35.8966 17.2ZM29.5889 14.1143V15.1428H31.9973C31.9399 15.7143 31.7106 16.1714 31.4238 16.4571C31.0798 16.8 30.5064 17.2 29.5889 17.2C28.098 17.1428 26.9511 15.9428 26.9511 14.4571C26.9511 12.9714 28.1553 11.7714 29.5889 11.7714C30.3917 11.7714 31.0224 12.1143 31.4812 12.5143L32.2266 11.7714C31.5959 11.2 30.7931 10.7428 29.7036 10.7428C27.6966 10.7428 25.9189 12.4571 25.9189 14.4571C25.9189 16.4571 27.6392 18.1714 29.7036 18.1714C30.8504 18.1714 31.5959 17.8285 32.284 17.0857C32.9721 16.4 33.2015 15.4285 33.2015 14.7428C33.2015 14.5143 33.2015 14.2857 33.1441 14.1143H29.5889ZM55.2784 14.9143C55.049 14.3428 54.4756 13.3714 53.2141 13.3714C51.9525 13.3714 50.9777 14.3428 50.9777 15.7714C50.9777 17.1428 52.0099 18.1714 53.3287 18.1714C54.4182 18.1714 55.1064 17.4857 55.2784 17.0857L54.4756 16.5143C54.1889 16.9143 53.8448 17.2 53.2714 17.2C52.698 17.2 52.3539 16.9714 52.0672 16.4571L55.2784 15.0857V14.9143ZM52.0099 15.7143C52.0099 14.8 52.7553 14.2857 53.2714 14.2857C53.6728 14.2857 54.0742 14.5143 54.1889 14.8L52.0099 15.7143ZM49.3148 18H50.4043V10.9714H49.3148V18ZM47.6518 13.8857C47.3651 13.6 46.9064 13.3143 46.3329 13.3143C45.1287 13.3143 44.0392 14.4 44.0392 15.7143C44.0392 17.0285 45.1287 18.0571 46.3329 18.0571C46.9064 18.0571 47.3651 17.7714 47.5945 17.4857H47.6518V17.8285C47.6518 18.7428 47.1357 19.2571 46.3329 19.2571C45.7022 19.2571 45.2434 18.8 45.1287 18.4L44.2686 18.8571C44.5553 19.4857 45.2434 20.2857 46.3903 20.2857C47.6518 20.2857 48.6266 19.5428 48.6266 17.8285V13.5428H47.5945V13.8857H47.6518ZM46.3903 17.2C45.6448 17.2 45.0141 16.5714 45.0141 15.7143C45.0141 14.8571 45.6448 14.2285 46.3903 14.2285C47.1357 14.2285 47.7092 14.8571 47.7092 15.7143C47.7092 16.5714 47.1357 17.2 46.3903 17.2ZM60.2099 10.9714H57.6868V18H58.7763V15.3714H60.2672C61.4714 15.3714 62.5609 14.5143 62.5609 13.2C62.5609 11.8857 61.3567 10.9714 60.2099 10.9714ZM60.2672 14.3428H58.719V11.9428H60.2672C61.07 11.9428 61.5287 12.6285 61.5287 13.1428C61.4141 13.7143 60.9553 14.3428 60.2672 14.3428ZM66.7469 13.3143C65.9441 13.3143 65.1413 13.6571 64.8546 14.4L65.8294 14.8C66.0588 14.4 66.4029 14.2857 66.8043 14.2857C67.3777 14.2857 67.8938 14.6285 67.9511 15.2V15.2571C67.7791 15.1428 67.3203 14.9714 66.8616 14.9714C65.8294 14.9714 64.8546 15.5428 64.8546 16.5714C64.8546 17.5428 65.7148 18.1714 66.6322 18.1714C67.3777 18.1714 67.7217 17.8285 68.0085 17.4857H68.0658V18.0571H69.098V15.3714C68.8686 14.0571 67.8938 13.3143 66.7469 13.3143ZM66.6322 17.2C66.2882 17.2 65.7721 17.0285 65.7721 16.5714C65.7721 16 66.4029 15.8285 66.919 15.8285C67.3777 15.8285 67.6071 15.9428 67.8938 16.0571C67.7791 16.7428 67.2057 17.2 66.6322 17.2ZM72.5385 13.4857L71.3343 16.5143H71.277L70.0155 13.4857H68.8686L70.7036 17.7714L69.6141 20.1143H70.7036L73.5707 13.4857H72.5385ZM63.077 18H64.1665V10.9714H63.077V18Z" fill="#FEFEFE"></path>
    <path d="M8.54407 5.31427C8.37204 5.4857 8.3147 5.77141 8.3147 6.11427V18.5714C8.3147 18.9143 8.42938 19.2 8.60141 19.3714L8.65875 19.4286L15.6546 12.4571V12.3428L8.54407 5.31427Z" fill="#FEFEFE"></path>
    <path d="M18.2924 14.8L15.9987 12.5143V12.3428L18.2924 10.0571L18.3497 10.1143L21.1022 11.7143C21.905 12.1714 21.905 12.9143 21.1022 13.3714L18.2924 14.8Z" fill="#FEFEFE"></path>
    <path d="M18.1776 14.9143L15.7692 12.5714L8.71606 19.6C9.00278 19.8857 9.40418 19.8857 9.92026 19.6571L18.1776 14.9143Z" fill="#FEFEFE"></path>
    <path d="M18.1776 9.8857L9.92026 5.19999C9.40418 4.91427 9.00278 4.97142 8.71606 5.25713L15.7692 12.2286L18.1776 9.8857Z" fill="#FEFEFE"></path>
    <path d="M17.9475 14.6857L9.74753 19.2571C9.28879 19.5428 8.88739 19.4857 8.60068 19.2571L8.54333 19.3143L8.60068 19.3714C8.88739 19.6 9.28879 19.6571 9.74753 19.3714L17.9475 14.6857Z" fill="#FEFEFE" fill-opacity="0.2"></path>
    <path d="M8.54407 19.2571C8.37204 19.0857 8.3147 18.8 8.3147 18.4571V18.5143C8.3147 18.8571 8.42938 19.1428 8.54407 19.2571ZM20.7581 13.0857L17.9483 14.6857L18.0056 14.7428L20.7581 13.0857C21.1595 12.9143 21.3315 12.6285 21.3315 12.3428C21.3315 12.6285 21.1021 12.8571 20.7581 13.0857Z" fill="#FEFEFE" fill-opacity="0.2"></path>
  </symbol>
  <symbol fill="none" xmlns="http://www.w3.org/2000/svg" viewBox="0 0 82 24" id="appStore">
    <g clip-path="url(#clip0_6:59)">
      <path d="M79.0755 24H2.86713C1.26154 24 0 22.7428 0 21.1428V2.85712C0 1.25712 1.26154 -1.86334e-05 2.86713 -1.86334e-05H79.0755C80.6811 -0.0571615 81.9426 1.19998 82 2.79998V2.85712V21.1428C82 22.7428 80.7385 24 79.1329 24H79.0755Z" fill="#A6A6A6"></path>
      <path d="M79.0756 23.4286H2.92454C1.663 23.4857 0.630829 22.4572 0.573486 21.2V21.1429V2.85716C0.573486 1.60001 1.60565 0.571442 2.86719 0.571442H2.92454H79.1329C80.3945 0.571442 81.484 1.60001 81.484 2.85716V21.1429C81.4266 22.4 80.3945 23.4286 79.0756 23.4286Z" fill="black"></path>
      <path d="M18.2923 11.8857C18.2923 9.94286 19.8979 9.02858 19.9552 8.97144C19.3245 8.00001 18.235 7.42858 17.0881 7.42858C15.9413 7.31429 14.7371 8.11429 14.1636 8.11429C13.5329 8.11429 12.6154 7.42858 11.5832 7.42858C10.2643 7.42858 9.06014 8.17144 8.42937 9.37144C7.05315 11.7143 8.08531 15.2 9.40419 17.0857C10.035 18 10.8378 19.0286 11.8126 19.0286C12.7874 18.9714 13.1888 18.4 14.3357 18.4C15.5399 18.4 15.8839 19.0286 16.8587 18.9714C17.8909 18.9714 18.579 18.0572 19.2098 17.0857C19.9552 16 20.2993 14.9714 20.2993 14.9143C20.2993 14.9143 18.2923 14.1714 18.2923 11.8857ZM16.3427 6.17144C16.9161 5.48572 17.2028 4.62858 17.1455 3.71429C16.4 3.77144 15.4252 4.22858 14.8517 4.85715C14.3357 5.42858 13.9343 6.34287 14.0489 7.20001C14.9091 7.31429 15.7692 6.80001 16.3427 6.17144Z" fill="white"></path>
      <path d="M32.5132 18.9143H31.137L30.3916 16.5714H27.7538L27.0083 18.9143H25.6895L28.3272 10.9143H29.9328L32.5132 18.9143ZM30.1622 15.5429L29.4741 13.4857L29.0727 12L28.6713 13.4857L27.9832 15.5429H30.1622ZM39.2223 15.9429C39.2797 16.8 38.993 17.6571 38.4195 18.2857C37.9608 18.8 37.33 19.0286 36.6419 19.0286C35.8964 19.0286 35.323 18.7429 34.979 18.2286V21.2571H33.6601V15.0286L33.6027 13.1429H34.7496L34.8069 14.0571C35.2083 13.3714 35.9538 12.9714 36.7566 13.0286C37.4447 13.0286 38.0181 13.3143 38.4769 13.8286C38.9929 14.4 39.2797 15.1429 39.2223 15.9429ZM37.9034 16C37.9034 15.4286 37.7888 14.9714 37.502 14.6286C37.2153 14.2286 36.8713 14.0571 36.3552 14.0571C36.0111 14.0571 35.7244 14.1714 35.495 14.3429C35.2083 14.5714 35.0936 14.8 34.979 15.1429L34.9216 15.5429V16.5143C34.9216 16.9143 35.0363 17.2571 35.323 17.6C35.6097 17.8857 35.8964 18.0571 36.3552 18.0571C36.8139 18.0571 37.2153 17.8857 37.502 17.4857C37.7888 17.0286 37.9034 16.5143 37.9034 16ZM45.8741 15.9429C45.9314 16.8 45.6447 17.6571 45.0713 18.2857C44.6125 18.8 43.9818 19.0286 43.2936 19.0286C42.5482 19.0286 41.9748 18.7429 41.6307 18.2286V21.2571H40.3118V15.0286L40.2545 13.1429H41.4013L41.516 14.0571C41.9174 13.3714 42.6629 12.9714 43.4657 13.0286C44.1538 13.0286 44.7272 13.3143 45.186 13.8286C45.6447 14.3429 45.8741 15.0857 45.8741 15.9429ZM44.5552 16C44.5552 15.4286 44.4405 14.9714 44.1538 14.6286C43.8671 14.2286 43.523 14.0571 43.0069 14.0571C42.6629 14.0571 42.3762 14.1714 42.1468 14.3429C41.8601 14.5714 41.7454 14.8 41.6307 15.1429L41.5734 15.5429V16.5143C41.5734 16.9143 41.6881 17.2571 41.9748 17.6C42.2615 17.8857 42.5482 18.0571 43.0069 18.0571C43.4657 18.0571 43.8671 17.8857 44.1538 17.4857C44.4405 17.0857 44.5552 16.6286 44.5552 16ZM53.386 16.6286C53.386 17.3143 53.1566 17.8857 52.6978 18.2857C52.1818 18.7429 51.4363 18.9714 50.5188 18.9714C49.6587 18.9714 48.9706 18.8 48.4545 18.4571L48.7412 17.3714C49.3146 17.7143 49.9454 17.8857 50.6335 17.8857C51.0923 17.8857 51.4937 17.7714 51.7804 17.5429C52.0671 17.3143 52.1818 17.0286 52.1818 16.6857C52.1818 16.3429 52.0671 16.1143 51.8377 15.8857C51.6083 15.6571 51.2643 15.4857 50.7482 15.2571C49.3146 14.7429 48.6265 14 48.6265 12.9714C48.6265 12.3429 48.8559 11.7714 49.372 11.3714C49.8881 10.9714 50.5188 10.7429 51.3216 10.7429C52.0671 10.7429 52.6405 10.8571 53.1566 11.1429L52.8125 12.1714C52.3538 11.9429 51.7804 11.8286 51.2643 11.8286C50.8055 11.8286 50.4615 11.9429 50.1748 12.1714C49.9454 12.3429 49.8307 12.6286 49.8307 12.9143C49.8307 13.2571 49.9454 13.4857 50.1748 13.7143L51.3216 14.3429C51.8951 14.5714 52.4111 14.8571 52.8699 15.3143C53.2139 15.6571 53.386 16.1143 53.386 16.6286ZM57.6293 14.1143H56.1957V16.9143C56.1957 17.6 56.4251 18 56.9412 18L57.5146 17.9429L57.572 18.9143C57.3426 19.0286 56.9985 19.0286 56.5398 19.0286C56.0237 19.0286 55.6223 18.8571 55.3356 18.5714C55.0489 18.2857 54.8769 17.7714 54.8769 17.0286V14.1143H54.1314V13.1429H54.9916V12.1143L56.2531 11.7143V13.1429H57.6867V14.1143H57.6293ZM64.0517 15.9429C64.0517 16.8 63.8223 17.5429 63.3062 18.1143C62.7902 18.6857 62.0447 18.9714 61.1846 18.9714C60.3244 18.9714 59.6363 18.6857 59.1202 18.1143C58.6041 17.5429 58.3748 16.8571 58.3748 16C58.3748 15.0857 58.6615 14.4 59.1776 13.8286C59.6936 13.2571 60.3818 12.9714 61.2992 12.9714C62.1594 12.9714 62.8475 13.2571 63.3636 13.8286C63.8223 14.4 64.0517 15.0857 64.0517 15.9429ZM62.7328 16C62.7328 15.4857 62.6181 15.0286 62.3888 14.6286C62.102 14.1714 61.758 13.9429 61.2419 13.9429C60.7258 13.9429 60.3244 14.1714 60.0377 14.6286C59.8083 15.0286 59.6936 15.4857 59.6936 16C59.6936 16.5143 59.8083 16.9714 60.0377 17.3714C60.3244 17.8286 60.7258 18.0571 61.1846 18.0571C61.7006 18.0571 62.0447 17.8286 62.3314 17.3714C62.6181 17.0286 62.7328 16.5143 62.7328 16ZM68.2951 14.2857L67.8937 14.2286C67.4923 14.2286 67.0909 14.4 66.8615 14.7429C66.6321 15.0286 66.5174 15.4286 66.5174 15.8857V18.9143H65.1985V14.9714L65.1412 13.1429H66.2881L66.3454 14.2286H66.4027C66.5174 13.8857 66.7468 13.5429 67.0335 13.3143C67.3202 13.0857 67.6069 13.0286 67.951 13.0286H68.2951V14.2857ZM74.0867 15.7714L74.0293 16.3429H70.13C70.13 16.8571 70.302 17.3143 70.7034 17.6571C71.0475 17.9429 71.4489 18.0571 71.965 18.0571C72.5384 18.0571 73.0545 17.9429 73.5132 17.7714L73.7426 18.6857C73.1118 18.9143 72.4811 19.0286 71.7929 19.0286C70.9902 19.0857 70.2447 18.8 69.6713 18.2286C69.1552 17.6571 68.8685 16.9143 68.9258 16.1143C68.9258 15.2571 69.1552 14.5143 69.6713 13.9429C70.13 13.3143 70.8755 13.0286 71.6783 13.0286C72.5384 13.0286 73.1692 13.3143 73.5706 13.9429C73.9146 14.4 74.0867 15.0286 74.0867 15.7714ZM72.8251 15.4286C72.8251 15.0857 72.7678 14.7429 72.5958 14.4571C72.3664 14.1143 71.965 13.9429 71.5636 13.9429C71.1622 13.9429 70.8181 14.1143 70.5314 14.4571C70.302 14.7429 70.1874 15.0857 70.13 15.4286H72.8251Z" fill="white"></path>
      <path d="M29.7608 6.00001C29.7608 6.68573 29.5315 7.25716 29.1301 7.60001C28.7287 7.94287 28.1552 8.1143 27.4098 8.1143L26.4923 8.05716V4.17144L27.5818 4.1143C28.2699 4.1143 28.786 4.28573 29.1301 4.57144C29.5888 4.9143 29.7608 5.37144 29.7608 6.00001ZM29.0727 6.00001C29.0727 5.54287 28.958 5.20001 28.7287 4.97144C28.4993 4.74287 28.0979 4.62859 27.6392 4.62859L27.1231 4.68573V7.60001H27.5818C28.0406 7.60001 28.442 7.48573 28.7287 7.20001C28.958 6.9143 29.0727 6.5143 29.0727 6.00001ZM33.3161 6.62859C33.3161 7.08573 33.2014 7.42859 32.9147 7.7143C32.628 8.00001 32.2839 8.17144 31.8825 8.17144C31.4811 8.17144 31.1371 8.05716 30.9077 7.77144C30.621 7.42859 30.5063 7.08573 30.5063 6.68573C30.5063 6.22859 30.621 5.88573 30.9077 5.60001C31.1371 5.3143 31.4811 5.20001 31.9399 5.20001C32.3413 5.20001 32.6853 5.3143 32.972 5.60001C33.2014 5.82859 33.3161 6.17144 33.3161 6.62859ZM32.628 6.62859C32.628 6.34287 32.5706 6.17144 32.4559 5.94287C32.3413 5.7143 32.1119 5.60001 31.8825 5.60001C31.6531 5.60001 31.4238 5.7143 31.3091 5.94287L31.1371 6.62859C31.1371 6.9143 31.1944 7.08573 31.3091 7.3143C31.4238 7.54287 31.6531 7.65716 31.8825 7.65716C32.1119 7.65716 32.3413 7.54287 32.4559 7.3143C32.5706 7.14287 32.628 6.9143 32.628 6.62859ZM38.0755 5.25716L37.158 8.05716H36.5846L36.2406 6.85716L36.0112 5.94287L35.7818 6.85716L35.3804 8.05716H34.807L33.9469 5.25716H34.5776L34.9217 6.62859L35.0937 7.54287L35.3231 6.62859L35.7245 5.25716H36.2406L36.642 6.57144L36.8713 7.48573L37.0434 6.57144L37.3874 5.25716H38.0755ZM41.3441 8.05716H40.7133V6.45716C40.7133 5.94287 40.5413 5.7143 40.1399 5.7143C39.9678 5.7143 39.7958 5.77144 39.6811 5.94287C39.5664 6.05716 39.5091 6.22859 39.5091 6.40001V8.05716H38.8783V6.05716V5.25716H39.4518L39.5091 5.7143L39.8531 5.37144C40.0252 5.25716 40.1972 5.20001 40.4266 5.20001C40.7133 5.20001 40.9427 5.25716 41.1147 5.42859C41.3441 5.65716 41.4587 5.94287 41.4587 6.34287V8.05716H41.3441ZM43.1217 8.05716H42.4909V3.94287H43.1217V8.05716ZM46.849 6.62859C46.849 7.08573 46.7343 7.42859 46.4476 7.7143C46.1608 8.00001 45.8168 8.17144 45.4154 8.17144C45.014 8.17144 44.6699 8.05716 44.4406 7.77144C44.2112 7.48573 44.0392 7.14287 44.0392 6.74287C44.0392 6.28573 44.1538 5.94287 44.4406 5.65716C44.6699 5.37144 45.0713 5.25716 45.4727 5.25716C45.8741 5.25716 46.2182 5.37144 46.5049 5.65716C46.7343 5.82859 46.849 6.17144 46.849 6.62859ZM46.2182 6.62859C46.2182 6.34287 46.1608 6.17144 46.0462 5.94287C45.9315 5.7143 45.7021 5.60001 45.4727 5.60001C45.2434 5.60001 45.014 5.7143 44.8993 5.94287C44.7846 6.1143 44.7273 6.34287 44.7273 6.62859C44.7273 6.9143 44.7846 7.08573 44.8993 7.3143C45.014 7.54287 45.2434 7.65716 45.4727 7.65716C45.7021 7.65716 45.9315 7.54287 46.0462 7.3143C46.1608 7.14287 46.2182 6.9143 46.2182 6.62859ZM49.9455 8.05716H49.372L49.3147 7.7143C49.1427 8.00001 48.8559 8.1143 48.4545 8.1143C48.1678 8.1143 47.9385 8.05716 47.8238 7.88573C47.6518 7.7143 47.5944 7.54287 47.5944 7.3143C47.5944 6.97144 47.7664 6.68573 48.0532 6.5143C48.3972 6.28573 48.8559 6.22859 49.2573 6.22859V6.17144C49.2573 5.77144 49.0853 5.60001 48.6839 5.60001C48.3972 5.60001 48.1678 5.65716 47.9385 5.82859L47.8238 5.42859C48.1105 5.25716 48.4545 5.20001 48.7986 5.20001C49.5441 5.20001 49.9455 5.60001 49.9455 6.34287V7.37144V8.05716ZM49.2573 7.08573V6.62859C48.5692 6.62859 48.2252 6.80001 48.2252 7.20001L48.3399 7.54287L48.6839 7.65716L49.0853 7.54287L49.3147 7.20001L49.2573 7.08573ZM53.558 8.05716H52.9846L52.9273 7.60001C52.7552 7.94287 52.4685 8.1143 52.0098 8.1143C51.6657 8.1143 51.379 8.00001 51.1497 7.7143C50.9203 7.42859 50.8056 7.08573 50.8056 6.68573C50.8056 6.22859 50.9203 5.88573 51.1497 5.60001C51.379 5.3143 51.6657 5.20001 52.0098 5.20001C52.4112 5.20001 52.6406 5.3143 52.8126 5.60001V3.94287H53.4434V7.3143L53.558 8.05716ZM52.8699 6.85716V6.40001V6.22859L52.6406 5.82859C52.5259 5.7143 52.4112 5.65716 52.2392 5.65716C52.0098 5.65716 51.8378 5.77144 51.6657 5.94287C51.5511 6.1143 51.4364 6.34287 51.4364 6.68573C51.4364 6.97144 51.4937 7.20001 51.6084 7.37144C51.7231 7.54287 51.9524 7.65716 52.1818 7.65716C52.4112 7.65716 52.5832 7.60001 52.6979 7.42859C52.8126 7.25716 52.8699 7.08573 52.8699 6.85716ZM59.0056 6.62859C59.0056 7.08573 58.8909 7.42859 58.6042 7.7143C58.3175 8.00001 57.9734 8.17144 57.572 8.17144C57.1706 8.17144 56.8266 8.05716 56.5972 7.77144C56.3678 7.48573 56.1958 7.14287 56.1958 6.74287C56.1958 6.28573 56.3105 5.94287 56.5972 5.65716C56.8266 5.3143 57.1706 5.20001 57.6294 5.20001C58.0308 5.20001 58.3748 5.3143 58.6615 5.60001C58.8336 5.82859 59.0056 6.17144 59.0056 6.62859ZM58.3175 6.62859C58.3175 6.34287 58.2601 6.17144 58.1455 5.94287C58.0308 5.7143 57.8014 5.60001 57.572 5.60001C57.3427 5.60001 57.1133 5.7143 56.9986 5.94287C56.8839 6.1143 56.8266 6.34287 56.8266 6.62859C56.8266 6.9143 56.8839 7.08573 56.9986 7.3143C57.1133 7.54287 57.3427 7.65716 57.572 7.65716C57.8014 7.65716 58.0308 7.54287 58.1455 7.3143C58.2601 7.14287 58.3175 6.9143 58.3175 6.62859ZM62.3888 8.05716H61.758V6.45716C61.758 5.94287 61.586 5.7143 61.1846 5.7143C61.0126 5.7143 60.8406 5.77144 60.7259 5.94287C60.6112 6.05716 60.5538 6.22859 60.5538 6.40001V8.05716H59.9231V6.05716V5.25716H60.4965V5.65716L60.8406 5.3143C61.0126 5.20001 61.1846 5.14287 61.414 5.14287C61.7007 5.14287 61.9301 5.20001 62.1021 5.37144C62.3315 5.60001 62.4462 5.88573 62.4462 6.28573L62.3888 8.05716ZM66.6895 5.7143H66.0014V7.08573C66.0014 7.42859 66.1161 7.60001 66.3455 7.60001L66.6322 7.54287V8.00001L66.1161 8.05716C65.8867 8.05716 65.6573 8.00001 65.5427 7.82859C65.428 7.65716 65.3133 7.42859 65.3133 7.08573V5.7143H64.9119V5.25716H65.3133V4.68573L65.9441 4.5143V5.20001H66.6322L66.6895 5.7143ZM70.0154 8.05716H69.3846V6.45716C69.3846 5.94287 69.2126 5.7143 68.8112 5.7143C68.5245 5.7143 68.2951 5.88573 68.1804 6.17144L68.1231 6.40001V8.1143H67.4923V3.94287H68.1231V5.65716C68.2951 5.37144 68.5818 5.20001 68.9832 5.20001C69.2699 5.20001 69.442 5.25716 69.614 5.42859C69.8434 5.65716 69.958 5.94287 69.958 6.40001L70.0154 8.05716ZM73.5133 6.5143V6.80001H71.621C71.621 7.08573 71.7357 7.3143 71.9077 7.42859C72.0797 7.54287 72.2518 7.60001 72.5385 7.60001L73.2839 7.48573L73.3986 7.94287C73.1119 8.05716 72.8252 8.1143 72.4238 8.1143C71.965 8.1143 71.621 8.00001 71.3916 7.7143C71.1622 7.42859 70.9902 7.08573 70.9902 6.68573C70.9902 6.28573 71.1049 5.88573 71.3343 5.60001C71.5636 5.3143 71.9077 5.14287 72.3091 5.14287C72.7105 5.14287 73.0546 5.3143 73.2266 5.60001C73.3986 5.88573 73.5133 6.17144 73.5133 6.5143ZM72.8825 6.34287L72.7678 5.88573C72.6531 5.7143 72.4811 5.60001 72.2518 5.60001C72.0224 5.60001 71.8503 5.65716 71.7357 5.82859C71.621 5.94287 71.5636 6.1143 71.5636 6.34287H72.8825Z" fill="white"></path>
    </g>
    <defs>
      <clipPath id="clip0_6:59">
        <rect width="82" height="24" fill="white"></rect>
      </clipPath>
    </defs>
  </symbol>
  <symbol fill="none" xmlns="http://www.w3.org/2000/svg" viewBox="0 0 82 24" id="casino">
    <g clip-path="url(#clip0_6:66)">
      <path d="M79.0755 23.998H2.86713C1.26154 23.998 0 22.741 0 21.1411V2.85684C0 1.25697 1.26154 -7.98147e-05 2.86713 -7.98147e-05H79.0755C80.6811 -0.0572182 81.9426 1.19983 82 2.7997V2.85684V21.1411C82 22.741 80.7385 23.998 79.1329 23.998H79.0755Z" fill="#A6A6A6"></path>
      <path d="M79.0756 23.4268H2.92454C1.663 23.4839 0.630829 22.4554 0.573486 21.1984V21.1413V2.85698C0.573486 1.59993 1.60565 0.571442 2.86719 0.571442H2.92454H79.1329C80.3945 0.571442 81.484 1.59993 81.484 2.85698V21.1413C81.4266 22.3983 80.3945 23.4268 79.0756 23.4268Z" fill="black"></path>
      <path fill-rule="evenodd" clip-rule="evenodd" d="M22.225 6.81669C22.3546 6.71951 22.4503 6.58402 22.4986 6.42942C22.5469 6.27482 22.5453 6.10895 22.4941 5.95529C22.4429 5.80164 22.3446 5.66799 22.2132 5.57329C22.0818 5.47858 21.924 5.42762 21.762 5.42762C21.6 5.42762 21.4422 5.47858 21.3108 5.57329C21.1794 5.66799 21.0811 5.80164 21.0299 5.95529C20.9787 6.10895 20.9771 6.27482 21.0254 6.42942C21.0737 6.58402 21.1694 6.71951 21.299 6.81669V11.7299H20.6045V5.76203H18.881V5.19611H15.0739C15.0089 4.87565 14.8351 4.58752 14.5819 4.38057C14.3288 4.17361 14.0118 4.06055 13.6848 4.06055C13.3579 4.06055 13.0409 4.17361 12.7878 4.38057C12.5346 4.58752 12.3608 4.87565 12.2958 5.19611H8.4887V5.76203H6.7395V18.7267H20.6045V14.2765H21.5819V14.1479C21.8157 14.0865 22.0229 13.95 22.1716 13.7595C22.3203 13.569 22.4023 13.3349 22.4051 13.0932C22.4005 12.8752 22.3384 12.6622 22.225 12.4759V6.81669ZM15.5884 6.97103V11.4469H11.7813V6.97103H15.5884ZM7.35687 6.97103H11.1639V11.4469H7.35687V6.97103ZM18.7781 17.1318H8.28291V14.8939H18.7781V17.1318ZM20.0385 11.4469H16.2315V6.97103H20.0385V11.4469ZM34.6238 8.23146C34.8682 8.16359 35.0789 8.00786 35.2155 7.79416H35.1898V6.3022H33.6978V6.7395H34.6496V7.63982C34.5409 7.74618 34.4087 7.82548 34.2637 7.87133C34.0889 7.9258 33.9066 7.95185 33.7235 7.9485C33.5589 7.95662 33.3948 7.92317 33.2465 7.85125C33.0981 7.77932 32.9703 7.67123 32.8746 7.53693C32.655 7.21124 32.5467 6.82318 32.566 6.43082V6.09641C32.5442 5.70738 32.643 5.32111 32.8489 4.9903C32.9427 4.86208 33.0673 4.75953 33.2112 4.6921C33.355 4.62467 33.5135 4.59453 33.6721 4.60445C33.9103 4.58653 34.1461 4.66268 34.3288 4.81656C34.5115 4.97044 34.6267 5.1898 34.6496 5.4276H35.1898C35.1338 5.07334 34.9619 4.74765 34.701 4.50156C34.4135 4.26253 34.0452 4.14285 33.6721 4.16715C33.4409 4.1548 33.2098 4.19462 32.9961 4.28368C32.7823 4.37273 32.5914 4.50874 32.4373 4.68162C32.1259 5.095 31.9709 5.60537 32.0001 6.12214V6.48227C32.0038 6.82947 32.0828 7.17174 32.2316 7.48548C32.371 7.76574 32.5884 7.99977 32.8576 8.15948C33.1268 8.31919 33.4364 8.39778 33.7492 8.3858C34.048 8.39128 34.345 8.33887 34.6238 8.23146ZM36.7519 8.31672C36.9252 8.38781 37.1119 8.4202 37.299 8.41161C37.5299 8.42682 37.7602 8.374 37.9613 8.2597C38.1625 8.1454 38.3258 7.97464 38.4309 7.76853L38.1222 7.51129C38.0304 7.63366 37.9171 7.73827 37.7878 7.81997C37.6083 7.91163 37.4042 7.9436 37.2052 7.91121C37.0063 7.87882 36.8229 7.78378 36.6817 7.63991C36.5097 7.43996 36.418 7.18331 36.4244 6.91965H38.508V6.71386C38.5269 6.30973 38.4091 5.91103 38.1736 5.58203C38.0585 5.45193 37.9153 5.34962 37.7549 5.28279C37.5945 5.21596 37.4211 5.18635 37.2476 5.19618C37.0099 5.20165 36.7784 5.27288 36.5788 5.40197C36.3709 5.54648 36.2027 5.74113 36.09 5.96788C35.9641 6.2236 35.9023 6.50611 35.91 6.79103V6.89393C35.8907 7.29866 36.029 7.69511 36.2958 8.00004C36.423 8.13755 36.5787 8.24563 36.7519 8.31672ZM36.9278 5.7191C37.0207 5.67928 37.1208 5.6589 37.2219 5.6592C37.3211 5.65525 37.4202 5.67145 37.513 5.70682C37.6059 5.74218 37.6906 5.79599 37.7621 5.86499C37.8912 6.04541 37.9629 6.26056 37.9679 6.48235V6.5338H36.4244C36.4293 6.29532 36.5207 6.06675 36.6817 5.89071C36.7512 5.81732 36.8349 5.75891 36.9278 5.7191ZM39.82 4.55307V5.27332H40.3859V5.6849H39.82V7.58844C39.8144 7.68863 39.8414 7.78793 39.8972 7.87139C39.9267 7.91017 39.9663 7.94022 40.0116 7.95833C40.0569 7.97645 40.1062 7.98196 40.1544 7.97429C40.2409 7.97619 40.3272 7.96755 40.4116 7.94856V8.36014C40.2763 8.38992 40.1385 8.40714 40 8.41159C39.9008 8.41554 39.8017 8.39934 39.7089 8.36397C39.616 8.3286 39.5313 8.2748 39.4598 8.2058C39.3245 8.03988 39.2598 7.82737 39.2798 7.61416V5.71062H38.7139V5.29905H39.2798V4.55307H39.82ZM42.5208 4.21856V8.33432H43.9613C44.3301 8.35796 44.6953 8.24842 44.9902 8.02564C45.1092 7.91404 45.2029 7.77823 45.2651 7.62737C45.3272 7.47651 45.3563 7.31408 45.3503 7.15104C45.3491 6.92862 45.277 6.71238 45.1446 6.53368C45.0164 6.34971 44.8234 6.22105 44.6044 6.17355C44.7798 6.10745 44.9319 5.99114 45.0417 5.83914C45.1427 5.6866 45.1964 5.50762 45.196 5.32467C45.2088 5.17084 45.1852 5.01615 45.1271 4.87314C45.069 4.73013 44.9781 4.60282 44.8616 4.50152C44.568 4.29822 44.215 4.19865 43.8584 4.21856H42.5208ZM43.8841 5.96776H43.0609V4.65586H43.8584C44.0672 4.64103 44.2751 4.69526 44.45 4.8102C44.5205 4.86965 44.5758 4.94492 44.6116 5.02987C44.6474 5.11481 44.6625 5.20702 44.6558 5.29895C44.6632 5.39094 44.6483 5.48335 44.6125 5.5684C44.5767 5.65345 44.521 5.72866 44.45 5.78769C44.292 5.91906 44.089 5.98365 43.8841 5.96776ZM43.0609 7.89702V6.40506H43.987C44.5272 6.40506 44.7844 6.66229 44.7844 7.15104C44.7899 7.25281 44.7719 7.35448 44.7317 7.44816C44.6916 7.54184 44.6304 7.62501 44.5529 7.69123C44.3905 7.83512 44.1779 7.90908 43.9613 7.89702H43.0609ZM45.9164 6.79097C45.9087 6.50604 45.9705 6.22353 46.0964 5.96782C46.202 5.7364 46.3716 5.54002 46.5852 5.4019C46.8018 5.2684 47.051 5.19719 47.3054 5.19611C47.4943 5.19197 47.6819 5.22894 47.8551 5.30444C48.0283 5.37995 48.1831 5.4922 48.3086 5.63341C48.5798 5.95612 48.7178 6.37008 48.6945 6.79097V6.81669C48.7051 7.09366 48.643 7.36859 48.5144 7.61412C48.4028 7.84157 48.2345 8.03646 48.0257 8.18004C47.8143 8.32499 47.5615 8.39722 47.3054 8.38582C47.1165 8.38996 46.929 8.353 46.7557 8.27749C46.5825 8.20199 46.4278 8.08974 46.3022 7.94853C46.031 7.62582 45.893 7.21186 45.9164 6.79097ZM46.4308 6.84242C46.4172 7.13459 46.4984 7.42334 46.6623 7.66557C46.7354 7.76646 46.8325 7.84753 46.9447 7.90144C47.057 7.95534 47.181 7.98037 47.3054 7.97425C47.4295 7.97834 47.5528 7.95241 47.6648 7.89867C47.7767 7.84493 47.8741 7.76497 47.9485 7.66557C48.1191 7.40715 48.2005 7.09996 48.18 6.79097C48.1937 6.49879 48.1125 6.21004 47.9485 5.96782C47.8755 5.86692 47.7784 5.78585 47.6661 5.73195C47.5538 5.67805 47.4298 5.65302 47.3054 5.65914C47.1851 5.65595 47.0658 5.68244 46.9581 5.73628C46.8505 5.79011 46.7577 5.86963 46.6881 5.96782C46.4971 6.2175 46.4054 6.5291 46.4308 6.84242ZM49.8779 5.65924L49.8522 5.27339H49.3892V8.36021H49.9036V6.17371C49.9706 6.02701 50.0776 5.90218 50.2123 5.81358C50.3425 5.72908 50.4944 5.68438 50.6496 5.68497C50.7332 5.67847 50.8172 5.68878 50.8967 5.71529C50.9763 5.7418 51.0497 5.78397 51.1126 5.83931C51.1698 5.90624 51.213 5.98401 51.2395 6.06798C51.266 6.15195 51.2754 6.2404 51.267 6.32805V8.36021H51.7814V6.32805C51.7814 5.58207 51.447 5.22194 50.804 5.22194C50.6263 5.21813 50.4501 5.25564 50.2894 5.33153C50.1287 5.40742 49.9878 5.51961 49.8779 5.65924ZM54.4566 8.05133C54.3414 8.17275 54.2012 8.26781 54.0458 8.32997C53.8904 8.39213 53.7234 8.41993 53.5562 8.41146C53.4191 8.41876 53.2819 8.39737 53.1534 8.34864C53.025 8.29992 52.9081 8.22495 52.8103 8.1285C52.7137 8.01086 52.6412 7.87534 52.5971 7.72968C52.553 7.58402 52.538 7.43108 52.553 7.27962V5.27319H53.0675V7.2539C53.0675 7.71692 53.2476 7.94843 53.6334 7.94843C53.7953 7.9674 53.959 7.93548 54.102 7.85712C54.2449 7.77875 54.3598 7.65782 54.4308 7.51114V5.27319H54.9453V8.33429H54.4566V8.05133ZM57.509 7.35008C57.536 7.40853 57.5478 7.47282 57.5434 7.53704C57.541 7.64795 57.5051 7.75555 57.4405 7.84572C57.2929 7.93359 57.1235 7.97816 56.9518 7.97434C56.7678 7.98247 56.5864 7.92807 56.4373 7.82C56.3725 7.77294 56.32 7.71098 56.2841 7.63934C56.2483 7.56771 56.2303 7.4885 56.2315 7.40842H55.717C55.7167 7.59137 55.7704 7.77035 55.8714 7.92289C55.9796 8.08235 56.1314 8.20736 56.3087 8.28302C56.5118 8.37012 56.7308 8.41393 56.9518 8.41164C57.2541 8.41297 57.5499 8.32334 57.8006 8.1544C57.9085 8.0804 57.9958 7.9802 58.0543 7.86321C58.1128 7.74622 58.1406 7.61628 58.135 7.48559C58.1357 7.33841 58.0908 7.19463 58.0064 7.07402C57.9092 6.95384 57.7861 6.85712 57.6463 6.79106C57.4399 6.69967 57.2243 6.63067 57.0032 6.58527C56.8159 6.54955 56.6343 6.48899 56.463 6.40521C56.4127 6.37802 56.3713 6.33681 56.3439 6.28659C56.3165 6.23637 56.3043 6.17929 56.3087 6.12225C56.3043 6.05803 56.3161 5.99374 56.3431 5.93529C56.37 5.87685 56.4113 5.82614 56.463 5.78784C56.5915 5.69976 56.7446 5.65472 56.9003 5.65923C57.068 5.655 57.2318 5.70961 57.3633 5.81357C57.4213 5.85349 57.4683 5.90746 57.4998 5.97044C57.5312 6.03342 57.5463 6.10334 57.5434 6.1737H58.0579C58.0569 6.04042 58.0263 5.90903 57.9685 5.78895C57.9107 5.66887 57.827 5.56307 57.7235 5.47916C57.48 5.29547 57.1791 5.2043 56.8746 5.22193C56.578 5.20405 56.2851 5.29557 56.0514 5.47916C55.9546 5.55596 55.8765 5.65375 55.8231 5.76516C55.7696 5.87657 55.7421 5.99867 55.7428 6.12225C55.746 6.2572 55.7813 6.38946 55.8457 6.5081C55.9265 6.63355 56.043 6.73206 56.1801 6.79106C56.3864 6.88245 56.602 6.95144 56.8231 6.99685C57.0247 7.02266 57.218 7.09295 57.3891 7.20263C57.4408 7.24093 57.4821 7.29164 57.509 7.35008ZM60.0387 6.79097C60.031 6.50604 60.0928 6.22353 60.2187 5.96782C60.3243 5.7364 60.4939 5.54002 60.7075 5.4019C60.9241 5.2684 61.1733 5.19719 61.4277 5.19611C61.6167 5.19197 61.8042 5.22894 61.9774 5.30444C62.1507 5.37995 62.3054 5.4922 62.431 5.63341C62.7022 5.95612 62.8402 6.37008 62.8168 6.79097V6.81669C62.8275 7.09366 62.7654 7.36859 62.6368 7.61412C62.5251 7.84157 62.3568 8.03646 62.148 8.18004C61.9366 8.32499 61.6838 8.39722 61.4277 8.38582C61.2388 8.38996 61.0513 8.353 60.8781 8.27749C60.7048 8.20199 60.5501 8.08974 60.4245 7.94853C60.1533 7.62582 60.0153 7.21186 60.0387 6.79097ZM60.5789 6.84242C60.5652 7.13459 60.6464 7.42334 60.8104 7.66557C60.8834 7.76646 60.9805 7.84753 61.0928 7.90144C61.2051 7.95534 61.3291 7.98037 61.4535 7.97425C61.5776 7.97834 61.7009 7.95241 61.8128 7.89867C61.9248 7.84493 62.0221 7.76497 62.0966 7.66557C62.2672 7.40715 62.3485 7.09996 62.3281 6.79097C62.3417 6.49879 62.2605 6.21004 62.0966 5.96782C62.0235 5.86692 61.9264 5.78585 61.8142 5.73195C61.7019 5.67805 61.5779 5.65302 61.4535 5.65914C61.3331 5.65595 61.2139 5.68244 61.1062 5.73628C60.9985 5.79011 60.9058 5.86963 60.8361 5.96782C60.6451 6.2175 60.5535 6.5291 60.5789 6.84242ZM64.0256 5.65924L63.9999 5.27339H63.5369V8.36021H64.0513V6.17371C64.1183 6.02701 64.2253 5.90218 64.36 5.81358C64.4902 5.72908 64.6421 5.68438 64.7973 5.68497C64.8809 5.67847 64.9649 5.68878 65.0444 5.71529C65.124 5.7418 65.1974 5.78397 65.2603 5.83931C65.3176 5.90624 65.3607 5.98401 65.3872 6.06798C65.4137 6.15195 65.4231 6.2404 65.4147 6.32805V8.36021H65.9291V6.32805C65.9291 5.58207 65.5947 5.22194 64.9517 5.22194C64.774 5.21813 64.5978 5.25564 64.4371 5.33153C64.2764 5.40742 64.1355 5.51961 64.0256 5.65924ZM38.2251 16.4115C38.1222 17.2347 37.8392 17.852 37.3248 18.2893C36.7595 18.7487 36.0462 18.9864 35.3183 18.9581C34.9037 18.9712 34.4915 18.89 34.1127 18.7207C33.734 18.5514 33.3986 18.2984 33.1318 17.9806C32.5917 17.3376 32.3087 16.463 32.3087 15.3568V14.6109C32.2942 13.9639 32.4261 13.3219 32.6945 12.7331C32.9218 12.2113 33.3011 11.7701 33.783 11.4672C34.2648 11.1644 34.8268 11.0138 35.3955 11.0353C36.1135 10.9985 36.8167 11.2483 37.3505 11.7298C37.8628 12.235 38.1659 12.9147 38.1994 13.6334H37.1704C37.1363 13.1368 36.9371 12.666 36.6045 12.2958C36.4368 12.1478 36.2411 12.0352 36.029 11.9645C35.8169 11.8938 35.5927 11.8665 35.3698 11.8842C35.077 11.8698 34.7853 11.928 34.5205 12.0537C34.2557 12.1794 34.0261 12.3686 33.8521 12.6044C33.492 13.0932 33.3119 13.762 33.3119 14.6366V15.3826C33.2807 16.0795 33.46 16.7696 33.8264 17.3633C33.988 17.6012 34.2072 17.7943 34.4636 17.9247C34.72 18.0552 35.0051 18.1186 35.2926 18.1093C35.7543 18.1438 36.2124 18.0064 36.5788 17.7234C36.8875 17.4662 37.0675 17.0289 37.1704 16.3858H38.2251V16.4115ZM42.8552 18.2379C42.8654 18.4408 42.9088 18.6407 42.9838 18.8295V18.8038H44.0128V18.7266C43.8649 18.3233 43.795 17.8956 43.807 17.4662V14.8424C43.8066 14.5868 43.7539 14.334 43.6522 14.0995C43.5504 13.8651 43.4018 13.6539 43.2153 13.479C42.8552 13.1446 42.3407 12.9903 41.6719 12.9903C41.2813 12.9722 40.8923 13.0518 40.5401 13.2218C40.2254 13.3788 39.9454 13.5975 39.717 13.8649C39.5225 14.0956 39.4134 14.3863 39.4083 14.6881H40.3858C40.3898 14.5598 40.4247 14.4345 40.4874 14.3226C40.55 14.2106 40.6387 14.1154 40.7459 14.045C40.9992 13.8612 41.3081 13.7704 41.6205 13.7877C41.7835 13.7769 41.9471 13.7986 42.1017 13.8516C42.2562 13.9046 42.3987 13.9878 42.5208 14.0964C42.6248 14.2059 42.7057 14.3352 42.7588 14.4766C42.8118 14.618 42.8358 14.7687 42.8295 14.9196V15.3569H41.8777C41.0546 15.3569 40.4372 15.5112 39.9742 15.8456C39.7588 16.0059 39.5854 16.216 39.4689 16.4579C39.3525 16.6998 39.2964 16.9663 39.3054 17.2347C39.299 17.4638 39.3442 17.6915 39.4377 17.9007C39.5312 18.11 39.6706 18.2956 39.8456 18.4437C40.2271 18.7817 40.7256 18.9571 41.2346 18.9324C41.5379 18.9335 41.8381 18.8724 42.1168 18.753C42.3956 18.6335 42.6469 18.4582 42.8552 18.2379ZM42.2379 17.852C41.9711 18.0033 41.6699 18.083 41.3633 18.0836C41.0745 18.1017 40.7896 18.0098 40.5658 17.8263C40.4633 17.7374 40.3822 17.6264 40.3288 17.5016C40.2753 17.3769 40.2508 17.2416 40.2571 17.1061C40.2571 16.4115 40.8745 16.0514 42.0578 16.0514H42.8295V17.2347C42.7033 17.4984 42.4959 17.7147 42.2379 17.852ZM48.6431 17.3119C48.6462 17.1915 48.6197 17.0723 48.5659 16.9646C48.5121 16.8569 48.4326 16.7642 48.3344 16.6945C48.0217 16.4962 47.6714 16.3648 47.3054 16.3087C46.8962 16.2308 46.4986 16.1011 46.1222 15.9228C45.8663 15.7989 45.6453 15.6133 45.4791 15.3826C45.3422 15.1675 45.2707 14.9173 45.2733 14.6624C45.2739 14.4328 45.3276 14.2066 45.4303 14.0013C45.5329 13.796 45.6817 13.6173 45.8649 13.4791C46.2939 13.1358 46.8339 12.9619 47.3826 12.9903C47.9475 12.9583 48.505 13.1319 48.9517 13.4791C49.1397 13.6361 49.2903 13.833 49.3926 14.0554C49.4949 14.2779 49.5464 14.5204 49.5434 14.7653H48.5659C48.5652 14.6319 48.5349 14.5004 48.477 14.3803C48.4192 14.2601 48.3353 14.1544 48.2315 14.0707C47.9949 13.8718 47.6913 13.7706 47.3826 13.7878C47.0896 13.7664 46.7984 13.8484 46.5595 14.0193C46.4655 14.0929 46.389 14.1864 46.3356 14.2932C46.2822 14.4 46.2532 14.5173 46.2508 14.6366C46.2491 14.7431 46.2741 14.8484 46.3235 14.9427C46.373 15.0371 46.4452 15.1176 46.5337 15.1768C46.8453 15.3477 47.1852 15.461 47.5369 15.5112C47.9461 15.5891 48.3438 15.7188 48.7202 15.8971C48.9832 16.0209 49.2126 16.2062 49.389 16.4373C49.5492 16.6619 49.6306 16.9333 49.6205 17.209C49.6269 17.4497 49.5739 17.6882 49.4663 17.9036C49.3586 18.1189 49.1995 18.3044 49.0032 18.4437C48.538 18.7714 47.9767 18.9343 47.4083 18.9067C46.9936 18.9145 46.5818 18.8357 46.1993 18.6752C45.8681 18.5332 45.583 18.3016 45.3762 18.0064C45.1717 17.7316 45.0632 17.3972 45.0675 17.0547H46.045C46.0496 17.2035 46.0865 17.3497 46.1531 17.4829C46.2197 17.6161 46.3145 17.7333 46.4308 17.8264C46.7182 18.0225 47.0607 18.1217 47.4083 18.1093C47.7247 18.1222 48.0378 18.0417 48.3086 17.8778C48.4159 17.8294 48.5056 17.7491 48.5654 17.6478C48.6253 17.5465 48.6524 17.4292 48.6431 17.3119ZM51.0612 11.2153C50.962 11.3295 50.9072 11.4756 50.9068 11.6269C50.9043 11.6984 50.9167 11.7697 50.9433 11.8361C50.9699 11.9025 51.01 11.9627 51.0612 12.0127C51.1851 12.1125 51.3394 12.167 51.4985 12.167C51.6575 12.167 51.8119 12.1125 51.9358 12.0127C51.9884 11.9638 52.0295 11.9039 52.0562 11.8371C52.0829 11.7704 52.0945 11.6986 52.0901 11.6269C52.0945 11.5513 52.083 11.4757 52.0565 11.4048C52.0299 11.3339 51.9888 11.2694 51.9358 11.2153C51.8779 11.1602 51.809 11.1179 51.7336 11.0913C51.6583 11.0647 51.5781 11.0544 51.4985 11.061C51.4185 11.0482 51.3366 11.0557 51.2602 11.0826C51.1838 11.1096 51.1154 11.1552 51.0612 11.2153ZM50.984 18.8295H51.9615V13.1189H50.984V18.8295ZM54.431 13.119L54.4567 13.8393C54.6557 13.5789 54.9129 13.3689 55.2078 13.2259C55.5026 13.083 55.8269 13.0111 56.1545 13.0161C57.3635 13.0161 57.9809 13.6849 57.9809 15.0483V18.8296H57.0034V15.0483C57.0297 14.7228 56.9282 14.3998 56.7204 14.1479C56.5403 13.9422 56.2574 13.865 55.8458 13.865C55.5502 13.8553 55.2601 13.946 55.0227 14.1222C54.7818 14.2952 54.5874 14.5249 54.4567 14.791V18.8296H53.4792V13.119H54.431ZM59.5498 14.4052C59.3186 14.8771 59.2039 15.3975 59.2154 15.9229H59.2411V15.9743C59.2018 16.7516 59.4592 17.5148 59.9614 18.1094C60.3764 18.5317 60.9202 18.8038 61.5071 18.883C62.0939 18.9622 62.6904 18.8439 63.2025 18.5467C63.598 18.3006 63.9114 17.9424 64.1028 17.5177C64.3161 17.0498 64.4216 16.5399 64.4115 16.0258V15.9486C64.4509 15.1713 64.1934 14.4082 63.6913 13.8136C63.4579 13.5486 63.168 13.3393 62.843 13.2013C62.518 13.0633 62.1662 13 61.8135 13.0161C61.3432 13.013 60.8809 13.1375 60.4758 13.3763C60.0729 13.621 59.7508 13.9788 59.5498 14.4052ZM60.6302 17.5692C60.3224 17.1247 60.1688 16.5916 60.1929 16.0515C60.1669 15.4593 60.329 14.874 60.6559 14.3795C60.7863 14.196 60.9605 14.0481 61.1627 13.9492C61.3649 13.8504 61.5886 13.8037 61.8135 13.8136C62.0435 13.8113 62.2707 13.8638 62.4765 13.9667C62.6822 14.0695 62.8605 14.2198 62.9967 14.4052C63.301 14.8513 63.4542 15.3832 63.434 15.9229C63.4644 16.4958 63.3112 17.0636 62.9967 17.5435C62.8625 17.7309 62.6846 17.8827 62.4784 17.9858C62.2722 18.0889 62.0439 18.1401 61.8135 18.1351C61.5849 18.1451 61.3575 18.0987 61.1511 18C60.9448 17.9013 60.7659 17.7533 60.6302 17.5692ZM9.55699 7.76613C9.64581 7.79446 9.72595 7.82002 9.85209 7.82002C10.0782 7.79555 10.3019 7.75253 10.5209 7.69141L10.8296 7.94864C10.8296 7.94864 10.2122 8.74607 10.0836 9.36343C9.95498 9.98079 9.87781 10.8297 9.87781 10.8297H8.30868C8.30276 10.5777 8.36497 10.3289 8.48875 10.1094C8.76262 9.63693 9.13029 9.22548 9.56913 8.90041C9.56913 8.90041 9.28617 8.92613 9.05466 8.92613C8.83898 8.91552 8.62283 8.93282 8.41157 8.97758C8.29818 9.0227 8.20086 9.10069 8.1321 9.20153C8.06335 9.30237 8.0263 9.42145 8.02572 9.5435H7.71704V7.69141H8V7.97436C8.34252 7.82242 8.70736 7.72686 9.08038 7.69141C9.32274 7.69141 9.44658 7.73091 9.55699 7.76613ZM14.2508 7.82002C14.1246 7.82002 14.0445 7.79446 13.9557 7.76613C13.8453 7.73091 13.7214 7.69141 13.4791 7.69141C13.106 7.72686 12.7412 7.82242 12.3987 7.97436V7.69141H12.1157V9.5435H12.4244C12.425 9.42145 12.462 9.30237 12.5308 9.20153C12.5995 9.10069 12.6969 9.0227 12.8103 8.97758C13.0215 8.93282 13.2377 8.91552 13.4533 8.92613C13.6849 8.92613 13.9678 8.90041 13.9678 8.90041C13.529 9.22548 13.1613 9.63693 12.8874 10.1094C12.7637 10.3289 12.7014 10.5777 12.7074 10.8297H14.2765C14.2765 10.8297 14.3537 9.98079 14.4823 9.36343C14.6109 8.74607 15.2283 7.94864 15.2283 7.94864L14.9196 7.69141C14.7005 7.75253 14.4769 7.79555 14.2508 7.82002ZM16.981 9.17565C16.9122 9.27649 16.8752 9.39557 16.8746 9.51762H16.5659V7.66553H16.8232V7.94849C17.1657 7.79654 17.5305 7.70098 17.9035 7.66553C18.1459 7.66553 18.2697 7.70503 18.3802 7.74025C18.469 7.76858 18.5491 7.79414 18.6752 7.79414C18.9111 7.77916 19.1442 7.73598 19.3698 7.66553L19.6785 7.92276C19.6785 7.92276 19.0611 8.72019 18.9325 9.33755C18.8039 9.95492 18.7267 10.8038 18.7267 10.8038H17.1576C17.1516 10.5519 17.2138 10.303 17.3376 10.0835C17.6115 9.61105 17.9792 9.19961 18.418 8.87453C18.418 8.87453 18.1351 8.90025 17.9035 8.90025C17.6879 8.88965 17.4717 8.90694 17.2605 8.9517C17.1471 8.99683 17.0497 9.07481 16.981 9.17565Z" fill="white"></path>
    </g>
    <defs>
      <clipPath id="clip0_6:66">
        <rect width="82" height="24" fill="white"></rect>
      </clipPath>
    </defs>
  </symbol>
  <symbol fill="none" xmlns="http://www.w3.org/2000/svg" viewBox="0 0 10 16" id="facebook">
    <path fill-rule="evenodd" clip-rule="evenodd" d="M9.16667 0.916667C9.16667 0.686667 8.97917 0.5 8.75 0.5H6.66667C4.365 0.5 2.5 2.17917 2.5 4.25V6.5H0.416667C0.186667 6.5 0 6.68667 0 6.91667V9.08333C0 9.31333 0.186667 9.5 0.416667 9.5H2.5V15.0833C2.5 15.3133 2.68667 15.5 2.91667 15.5H5.41667C5.64583 15.5 5.83333 15.3133 5.83333 15.0833V9.5H8.01583C8.20333 9.5 8.3675 9.375 8.41833 9.195L9.01917 7.02833C9.09333 6.76333 8.89333 6.5 8.61833 6.5H5.83333V4.25C5.83333 3.83583 6.20583 3.5 6.66667 3.5H8.75C8.97917 3.5 9.16667 3.31333 9.16667 3.08333V0.916667Z" fill="white"></path>
  </symbol>
  <symbol fill="none" xmlns="http://www.w3.org/2000/svg" viewBox="0 0 15 15" id="instagram">
    <path fill-rule="evenodd" clip-rule="evenodd" d="M9.69669 0.5C10.9748 0.5 12.1796 1.00095 13.0893 1.91066C13.9989 2.82027 14.5 4.02521 14.5 5.30331V9.69658C14.5 10.9748 13.9989 12.1797 13.0893 13.0893C12.1797 13.9991 10.9748 14.5 9.69669 14.5H5.30331C4.02521 14.5 2.82027 13.9991 1.91066 13.0893C1.00095 12.1797 0.5 10.9748 0.5 9.69658V5.30331C0.5 4.02521 1.00095 2.82027 1.91066 1.91066C2.82027 1.00095 4.02521 0.5 5.30331 0.5H9.69669ZM3.79492 7.5C3.79492 9.54298 5.45702 11.2051 7.5 11.2051C9.54298 11.2051 11.2051 9.54298 11.2051 7.5C11.2051 5.45702 9.54298 3.79492 7.5 3.79492C5.45702 3.79492 3.79492 5.45702 3.79492 7.5ZM11.3146 4.0956C11.4224 4.0956 11.5283 4.0518 11.6046 3.97554C11.6809 3.89917 11.7247 3.79332 11.7247 3.68544C11.7247 3.57745 11.6809 3.4716 11.6046 3.39534C11.5283 3.31897 11.4224 3.27528 11.3146 3.27528C11.2065 3.27528 11.1009 3.31897 11.0247 3.39534C10.9481 3.4716 10.9044 3.57745 10.9044 3.68544C10.9044 3.79343 10.9481 3.89917 11.0247 3.97554C11.1009 4.0518 11.2066 4.0956 11.3146 4.0956ZM5.75 7.5C5.75 6.53506 6.53506 5.75 7.5 5.75C8.465 5.75 9.25 6.53506 9.25 7.5C9.25 8.46494 8.46494 9.25 7.5 9.25C6.53506 9.25 5.75 8.46494 5.75 7.5Z" fill="white"></path>
  </symbol>
  <symbol fill="none" xmlns="http://www.w3.org/2000/svg" viewBox="0 0 84 18" id="privat">
    <path d="M19.8527 15.5H17.2589V6.5H26.5368V15.5H23.943V8.25H19.8029L19.8527 15.5ZM27.7839 8.8V17.75H30.1782V14.7C30.9763 15.55 32.2732 15.6 32.5725 15.6C34.8171 15.6 36.2138 14.15 36.2138 12.1C36.2138 9.95 34.8171 8.55 32.6223 8.55C32.0736 8.55 30.9763 8.65 30.0784 9.6H30.0285V8.8H27.7839ZM30.0784 12.05C30.0784 10.2 31.2257 9.85 31.924 9.85C32.6223 9.85 33.7696 10.2 33.7696 12.05C33.7696 13.2 33.2708 14.25 31.924 14.25C30.5273 14.25 30.0784 13.2 30.0784 12.05ZM42.1497 14.55C41.2518 15.35 40.4038 15.6 39.5059 15.6C36.962 15.6 36.8622 13.7 36.8622 12.9V8.8H39.2565V12.6C39.2565 13.9 39.7055 14.3 40.6033 14.3C42.0998 14.3 42.1995 12.95 42.1995 12.5V8.8H44.5938V15.35H42.1995L42.1497 14.55ZM47.9359 12.6H49.3824C50.5297 12.6 50.7292 12.95 50.7292 13.35C50.7292 13.65 50.5796 14 49.3824 14H47.886L47.9359 12.6ZM45.5416 8.8V15.35H50.2803C52.0261 15.35 53.1734 15 53.1734 13.7C53.1734 12.65 52.5748 12.2 51.2779 12V11.95C52.1259 11.85 52.8741 11.3 52.8741 10.4C52.8741 8.8 50.9786 8.8 50.2803 8.8H45.5416ZM47.9359 10.1H49.2328C49.9311 10.1 50.4798 10.2 50.4798 10.75C50.4798 11.35 49.582 11.35 49.1829 11.35H47.9359V10.1ZM56.1663 10.9C56.1663 9.95 57.2138 9.85 57.6128 9.85C57.8622 9.85 58.8599 9.85 58.9098 10.7V10.9C58.8599 11.55 58.2613 11.4 56.4656 11.65C55.019 11.85 53.5226 12.2 53.5226 13.7C53.5226 14.25 53.772 15.6 56.266 15.6C57.2138 15.6 58.3112 15.35 58.9098 14.7H58.9596L59.1592 15.35H61.6532V15.25C61.2043 15.15 61.1544 14.7 61.2043 14L61.2542 11C61.2542 10.25 61.2043 8.55 57.6128 8.55C56.7649 8.55 53.9715 8.65 53.8717 10.9C53.9216 10.9 56.1663 10.9 56.1663 10.9ZM58.9596 12.65C58.9596 13.95 57.8124 14.3 57.2138 14.3C56.7649 14.3 56.0166 14.15 56.0166 13.55C56.0166 12.8 56.9145 12.65 57.4133 12.6C58.3112 12.45 58.2613 12.5 58.9596 12.25C58.9596 12.2 58.9596 12.65 58.9596 12.65ZM61.5535 10.1V8.8H69.1853V10.1H66.5416V15.35H64.1473V10.1H61.5535Z" fill="white"></path>
    <path d="M0 15.35H5.93587V9.44998H0V15.35Z" fill="white"></path>
    <path d="M12.0713 3.39999V12.25H10.8741C10.3254 7.89999 7.58195 5.14999 3.14252 4.59999V3.39999H12.0713ZM0 0.299988V7.64999H1.5962C5.73634 7.64999 7.83135 9.74999 7.83135 13.85V15.4H15.2637V0.299988H0Z" fill="white"></path>
    <path d="M76.1686 13.6V15.3H69.6841C69.734 14.65 69.9834 14.05 70.3325 13.45C70.6817 12.85 71.38 12.1 72.4275 11.15C73.2755 10.35 73.7743 9.85002 73.9739 9.55002C74.2233 9.15002 74.3729 8.80002 74.3729 8.40002C74.3729 8.00002 74.2731 7.65002 74.0237 7.45002C73.8242 7.25002 73.4751 7.10002 73.1259 7.10002C72.7268 7.10002 72.4276 7.20002 72.228 7.45002C72.0285 7.70002 71.8789 8.05002 71.829 8.60002L69.9834 8.40002C70.0831 7.40002 70.4323 6.65002 71.0309 6.20002C71.6294 5.75002 72.3278 5.55002 73.1758 5.55002C74.1235 5.55002 74.8717 5.80002 75.4204 6.30002C75.9691 6.80002 76.2185 7.45002 76.2185 8.20002C76.2185 8.65002 76.1188 9.05002 75.9691 9.45002C75.8195 9.85002 75.5701 10.25 75.2209 10.7C75.0214 11 74.5724 11.4 74.0237 11.95C73.4252 12.5 73.076 12.85 72.9264 13C72.7767 13.15 72.6271 13.35 72.5273 13.5H76.1686V13.6Z" fill="white"></path>
    <path d="M81.0071 15.3V13.35H77.0665V11.75L81.2565 5.60001H82.8029V11.75H84V13.4H82.8029V15.3H81.0071ZM81.0071 11.75V8.45001L78.8124 11.75H81.0071Z" fill="white"></path>
  </symbol>
  <symbol fill="none" xmlns="http://www.w3.org/2000/svg" viewBox="0 0 26 20" id="mastercard">
    <g clip-path="url(#clip0_6:92)">
      <path d="M4.73644 19.95V18.65C4.78683 18.2 4.43412 17.85 3.98063 17.8C3.93024 17.8 3.93024 17.8 3.87985 17.8C3.57753 17.8 3.2752 17.9 3.12404 18.2C2.97288 17.95 2.72094 17.8 2.41861 17.8C2.16668 17.8 1.91474 17.9 1.81396 18.1V17.85H1.36047V19.95H1.81396V18.75C1.76357 18.5 1.96512 18.25 2.26745 18.2H2.31784C2.62016 18.2 2.77133 18.4 2.77133 18.75V19.95H3.22481V18.75C3.17443 18.5 3.37598 18.25 3.6783 18.2H3.72869C4.03102 18.2 4.18218 18.4 4.18218 18.75V19.95H4.73644ZM11.6899 17.85H10.9341V17.2H10.4302V17.85H9.97675V18.25H10.4302V19.2C10.4302 19.7 10.6318 20 11.1861 20C11.3876 20 11.5892 19.95 11.7907 19.85L11.6395 19.45C11.5388 19.5 11.3876 19.55 11.2364 19.55C10.9845 19.55 10.9341 19.4 10.9341 19.2V18.25H11.6899V17.85ZM15.6202 17.8C15.3682 17.8 15.1667 17.9 15.0659 18.1V17.85H14.6124V19.95H15.0659V18.75C15.0659 18.4 15.2171 18.2 15.5194 18.2C15.6202 18.2 15.7209 18.2 15.8217 18.25L15.9729 17.8C15.8721 17.8 15.7209 17.8 15.6202 17.8ZM9.67443 18C9.42249 17.85 9.12016 17.75 8.81784 17.8C8.26357 17.8 7.91086 18.05 7.91086 18.45C7.91086 18.8 8.1628 19 8.66668 19.05L8.86823 19.1C9.12016 19.15 9.22094 19.2 9.22094 19.3C9.22094 19.4 9.06978 19.55 8.71706 19.55C8.46512 19.55 8.21319 19.5 8.01164 19.35L7.81009 19.7C8.06202 19.9 8.41474 20 8.71706 19.95C9.32171 19.95 9.67443 19.65 9.67443 19.25C9.67443 18.85 9.3721 18.7 8.91861 18.6L8.71706 18.55C8.51551 18.55 8.36435 18.5 8.36435 18.35C8.36435 18.2 8.51551 18.1 8.76745 18.1C9.01939 18.1 9.22094 18.15 9.42249 18.3L9.67443 18ZM22.0698 17.8C21.8178 17.8 21.6163 17.9 21.5155 18.1V17.85H21.062V19.95H21.5155V18.75C21.5155 18.4 21.6667 18.2 21.969 18.2C22.0698 18.2 22.1706 18.2 22.2713 18.25L22.4225 17.8C22.3217 17.8 22.1706 17.8 22.0698 17.8ZM16.124 18.9C16.124 19.5 16.5775 20 17.1822 20C17.2326 20 17.2326 20 17.283 20C17.5853 20 17.8372 19.9 18.0388 19.75L17.8372 19.4C17.6861 19.5 17.4845 19.6 17.283 19.6C16.9302 19.55 16.6279 19.25 16.6783 18.85C16.7287 18.5 16.9806 18.25 17.283 18.25C17.4845 18.25 17.6861 18.3 17.8372 18.45L18.0388 18.1C17.8372 17.95 17.5349 17.85 17.283 17.85C16.6783 17.8 16.1744 18.25 16.124 18.9C16.124 18.85 16.124 18.85 16.124 18.9ZM20.4574 18.9V17.85H20.0039V18.1C19.8527 17.9 19.6008 17.8 19.3488 17.8C18.7442 17.85 18.2907 18.4 18.3411 19C18.3915 19.55 18.7946 19.95 19.3488 20C19.6008 20 19.8527 19.9 20.0039 19.7V19.95H20.4574V18.9ZM18.7442 18.9C18.7442 18.55 19.0465 18.3 19.3992 18.3C19.7519 18.3 20.0039 18.6 20.0039 18.95C20.0039 19.3 19.7016 19.55 19.3488 19.55C18.9961 19.55 18.7442 19.3 18.7442 18.9ZM13.1008 17.8C12.4961 17.8 11.9923 18.3 11.9923 18.9C11.9923 19.5 12.4961 20 13.1008 20C13.4031 20 13.7558 19.9 13.9574 19.7L13.7558 19.35C13.6047 19.5 13.3527 19.55 13.1512 19.55C12.8488 19.6 12.5465 19.35 12.4961 19.05H14.1085C14.1085 19 14.1085 18.95 14.1085 18.9C14.1589 18.35 13.7558 17.85 13.2016 17.8C13.2016 17.8 13.1512 17.8 13.1008 17.8ZM13.1008 18.2C13.4031 18.2 13.6047 18.4 13.655 18.7H12.5465C12.5969 18.4 12.8488 18.2 13.1008 18.2ZM24.7403 18.9V17H24.2868V18.1C24.1357 17.9 23.8837 17.8 23.6318 17.8C23.0271 17.85 22.5737 18.4 22.624 19C22.6744 19.55 23.0775 19.95 23.6318 20C23.8837 20 24.1357 19.9 24.2868 19.7V19.95H24.7403V18.9ZM23.0271 18.9C23.0271 18.55 23.3295 18.3 23.6822 18.3C24.0349 18.3 24.2868 18.6 24.2868 18.95C24.2868 19.3 23.9845 19.55 23.6318 19.55C23.2791 19.55 22.9768 19.3 23.0271 18.9ZM7.3566 18.9V17.85H6.90311V18.1C6.75195 17.9 6.50001 17.8 6.24807 17.8C5.64342 17.85 5.18993 18.4 5.24032 19C5.29071 19.55 5.69381 19.95 6.24807 20C6.50001 20 6.75195 19.9 6.90311 19.7V19.95H7.3566V18.9ZM5.64342 18.9C5.64342 18.55 5.94574 18.3 6.29846 18.3C6.65117 18.3 6.90311 18.6 6.90311 18.95C6.90311 19.3 6.60078 19.55 6.24807 19.55C5.94574 19.55 5.64342 19.3 5.64342 18.9Z" fill="white"></path>
      <path d="M16.5272 1.70001H9.52332V14.25H16.5272V1.70001Z" fill="white"></path>
      <path d="M9.92637 7.95001C9.92637 5.50001 11.0349 3.20001 13 1.70001C9.52327 -0.99999 4.48451 -0.399991 1.71319 3.05001C-1.00774 6.50001 -0.403085 11.5 3.07366 14.25C5.99614 16.5 10.0775 16.5 13 14.25C11.0349 12.75 9.92637 10.4 9.92637 7.95001Z" fill="white"></path>
      <path d="M26 7.95001C26 12.35 22.4225 15.9 17.9884 15.9C16.1744 15.9 14.4612 15.3 13.0504 14.2C16.4767 11.5 17.0814 6.50001 14.3605 3.05001C13.9574 2.55001 13.5039 2.10001 13 1.70001C16.4767 -0.99999 21.5659 -0.399991 24.2868 3.05001C25.3953 4.45001 26 6.20001 26 7.95001Z" fill="white"></path>
    </g>
    <defs>
      <clipPath id="clip0_6:92">
        <rect width="26" height="20" fill="white"></rect>
      </clipPath>
    </defs>
  </symbol>
  <symbol fill="none" xmlns="http://www.w3.org/2000/svg" viewBox="0 0 86 20" id="sportbank">
    <path d="M0 15.547H2.19631V13.514H0V15.547ZM3.13213 15.547H5.32845V11.5392H3.13213V15.547ZM6.26427 15.547H8.46058V9.56438H6.26427V15.547ZM9.3964 15.547H11.5927V7.58954H9.3964V15.547ZM20.9127 12.9526C20.9127 11.5392 19.7286 10.3775 18.2962 10.3775H16.6156C16.4246 10.3775 16.0235 10.2807 16.0235 9.91288C16.0235 9.52565 16.4246 9.40949 16.6156 9.40949H20.0151V7.55082H16.3673C14.9731 7.55082 13.8272 8.67377 13.8272 10.0484C13.8272 11.423 14.9731 12.546 16.3673 12.546H18.0671C18.2962 12.546 18.7355 12.6621 18.7355 13.1268C18.7355 13.5915 18.3153 13.6883 18.0671 13.6883H14.5148V15.547H18.2962C19.7286 15.5276 20.9127 14.3659 20.9127 12.9526ZM27.96 11.5586C27.96 12.7202 27.0242 13.6496 25.8974 13.6496C24.7515 13.6496 23.8348 12.7009 23.8348 11.5586C23.8348 10.4163 24.7706 9.46757 25.8974 9.46757C27.0242 9.44821 27.96 10.3969 27.96 11.5586ZM30.1563 11.5586C30.1563 9.17715 28.2465 7.24105 25.8974 7.24105C24.7706 7.24105 23.7584 7.68635 22.9944 8.40271V7.55082H21.6194V20H23.8157V15.334C24.4268 15.6825 25.1335 15.8761 25.8783 15.8761C28.2465 15.8761 30.1563 13.94 30.1563 11.5586ZM37.07 11.5586C37.07 12.7202 36.1341 13.6496 35.0073 13.6496C33.8614 13.6496 32.9256 12.7009 32.9256 11.5586C32.9256 10.4163 33.8614 9.46757 35.0073 9.46757C36.1532 9.44821 37.07 10.3969 37.07 11.5586ZM39.2663 11.5586C39.2663 9.17715 37.3564 7.24105 35.0073 7.24105C32.6582 7.24105 30.7484 9.17715 30.7484 11.5586C30.7484 13.94 32.6582 15.8761 35.0073 15.8761C37.3564 15.8761 39.2663 13.94 39.2663 11.5586ZM44.4992 9.50629H45.3014V7.27977H44.4992C43.3724 7.27977 42.3602 7.72507 41.5963 8.44143V7.60891H40.2212V15.5857H42.4175V11.6166C42.4175 10.4356 43.3533 9.50629 44.4992 9.50629ZM48.2807 9.44821H49.9805V7.22168H48.2807V3.44627H46.0844V15.5276H48.2807V9.44821ZM57.2569 11.5586C57.2569 12.7202 56.3211 13.6496 55.1943 13.6496C54.0484 13.6496 53.1317 12.7009 53.1317 11.5586C53.1317 10.4163 54.0675 9.46757 55.1943 9.46757C56.3402 9.44821 57.2569 10.3969 57.2569 11.5586ZM59.4533 11.5586C59.4533 9.17715 57.5434 7.24105 55.1943 7.24105C54.4304 7.24105 53.7046 7.45402 53.0935 7.80252V0H50.8972V15.5082H52.2723V14.6951C53.0362 15.4308 54.0675 15.8761 55.1943 15.8761C57.5434 15.8761 59.4533 13.94 59.4533 11.5586ZM66.596 11.5586C66.596 12.7202 65.6602 13.6496 64.5334 13.6496C63.3875 13.6496 62.4708 12.7009 62.4708 11.5586C62.4708 10.4163 63.4066 9.46757 64.5334 9.46757C65.6602 9.44821 66.596 10.3969 66.596 11.5586ZM67.4173 15.5082H68.7924V7.57018H67.4173V8.40271C66.6533 7.68635 65.6411 7.24105 64.5143 7.24105C62.1652 7.24105 60.2554 9.17715 60.2554 11.5586C60.2554 13.94 62.1652 15.8761 64.5143 15.8761C65.6411 15.8761 66.6533 15.4308 67.4173 14.7144V15.5082ZM74.942 15.5276H77.1384V11.0165C77.1384 8.94482 75.4768 7.26041 73.4142 7.26041C72.5165 7.26041 71.7144 7.57018 71.0651 8.11229V7.55082H69.69V10.5518V15.4889V15.5082H71.8863V10.9777C71.8863 10.1258 72.5738 9.42885 73.4142 9.42885C74.2545 9.42885 74.942 10.1258 74.942 10.9777V15.5276ZM83.1734 11.2294L85.618 7.55082H82.9634L81.2445 10.1258H80.2896V0H78.0933V15.5082H80.2896V12.3524H81.2445L83.3453 15.5082H86L83.1734 11.2294Z" fill="white"></path>
  </symbol>
  <symbol fill="none" xmlns="http://www.w3.org/2000/svg" viewBox="0 0 21 19" id="telegram">
    <path fill-rule="evenodd" clip-rule="evenodd" d="M16.0861 17.9316C16.3679 18.1311 16.731 18.181 17.0547 18.0585C17.3785 17.9351 17.6165 17.6586 17.6882 17.3235C18.4486 13.75 20.2931 4.70513 20.9852 1.45451C21.0377 1.20951 20.9502 0.954883 20.7577 0.791258C20.5652 0.627633 20.2984 0.580383 20.0604 0.668758C16.3915 2.02676 5.0926 6.26613 0.474354 7.97501C0.181229 8.08351 -0.00952102 8.36526 0.000103981 8.67413C0.010604 8.98388 0.218854 9.25251 0.518979 9.34263C2.5901 9.96213 5.30873 10.824 5.30873 10.824C5.30873 10.824 6.57923 14.6609 7.2416 16.6121C7.32473 16.8571 7.51635 17.0496 7.76923 17.1161C8.02123 17.1818 8.29073 17.1126 8.47885 16.935C9.54285 15.9305 11.1879 14.3774 11.1879 14.3774C11.1879 14.3774 14.3134 16.669 16.0861 17.9316ZM6.45235 10.3393L7.92148 15.185L8.24785 12.1164C8.24785 12.1164 13.924 6.99676 17.1597 4.07863C17.2542 3.99288 17.2674 3.84938 17.1886 3.74876C17.1107 3.64813 16.9672 3.62451 16.8596 3.69276C13.1094 6.08763 6.45235 10.3393 6.45235 10.3393Z" fill="white"></path>
  </symbol>
  <symbol fill="none" xmlns="http://www.w3.org/2000/svg" viewBox="0 0 20 20" id="tiktok">
    <path d="M12.5001 4.16668V3.33334H10.8334V12.5C10.8334 13.8788 9.7122 15 8.33342 15C6.95463 15 5.83341 13.8788 5.83341 12.5C5.83341 11.1212 6.95463 10 8.33342 10H9.16675V8.33334H8.33342C6.03585 8.33334 4.16675 10.2024 4.16675 12.5C4.16675 14.7976 6.03585 16.6667 8.33342 16.6667C10.631 16.6667 12.5001 14.7976 12.5001 12.5V7.49208C13.1975 8.01759 14.0614 8.33334 15.0001 8.33334H15.8334V6.66668H15.0001C13.6213 6.66668 12.5001 5.54546 12.5001 4.16668Z" fill="white"></path>
    <path d="M0 20H20V0H0V20ZM1.66667 1.66667H18.3333V18.3333H1.66667V1.66667Z" fill="white"></path>
  </symbol>
  <symbol fill="none" xmlns="http://www.w3.org/2000/svg" viewBox="0 0 20 18" id="twitter">
    <path d="M20 2.79875C19.2563 3.125 18.4637 3.34125 17.6375 3.44625C18.4875 2.93875 19.1363 2.14125 19.4412 1.18C18.6488 1.6525 17.7738 1.98625 16.8412 2.1725C16.0887 1.37125 15.0162 0.875 13.8462 0.875C11.5763 0.875 9.74875 2.7175 9.74875 4.97625C9.74875 5.30125 9.77625 5.61375 9.84375 5.91125C6.435 5.745 3.41875 4.11125 1.3925 1.6225C1.03875 2.23625 0.83125 2.93875 0.83125 3.695C0.83125 5.115 1.5625 6.37375 2.6525 7.1025C1.99375 7.09 1.3475 6.89875 0.8 6.5975C0.8 6.61 0.8 6.62625 0.8 6.6425C0.8 8.635 2.22125 10.29 4.085 10.6712C3.75125 10.7625 3.3875 10.8062 3.01 10.8062C2.7475 10.8062 2.4825 10.7913 2.23375 10.7362C2.765 12.36 4.2725 13.5538 6.065 13.5925C4.67 14.6838 2.89875 15.3412 0.98125 15.3412C0.645 15.3412 0.3225 15.3263 0 15.285C1.81625 16.4563 3.96875 17.125 6.29 17.125C13.835 17.125 17.96 10.875 17.96 5.4575C17.96 5.27625 17.9538 5.10125 17.945 4.9275C18.7588 4.35 19.4425 3.62875 20 2.79875Z" fill="white"></path>
  </symbol>
  <symbol fill="none" xmlns="http://www.w3.org/2000/svg" viewBox="0 0 19 20" id="viber">
    <path d="M18.2959 11.5775C18.8926 6.55499 18.0092 3.38416 16.4159 1.94999L16.4167 1.94916C13.8451 -0.50001 5.16007 -0.86251 2.0834 2.05916C0.701733 3.48832 0.215066 5.58582 0.161733 8.18249C0.108399 10.78 0.0450661 15.6458 4.57923 16.9658H4.5834L4.57923 18.9817C4.57923 18.9817 4.5484 19.7983 5.07007 19.9625C5.66673 20.1558 5.93673 19.7767 7.79257 17.56C10.8959 17.8292 13.2792 17.2125 13.5501 17.1225C14.1767 16.9125 17.7226 16.4433 18.2959 11.5775ZM8.0984 16.1417C8.0984 16.1417 6.13423 18.5908 5.5234 19.2267C5.3234 19.4333 5.10423 19.4142 5.10757 19.0042C5.10757 18.735 5.12257 15.6575 5.12257 15.6575C1.2784 14.5558 1.50507 10.4125 1.54673 8.24499C1.5884 6.07666 1.98507 4.30082 3.15507 3.10499C5.85423 0.574157 13.4684 1.13999 15.4084 2.96332C17.7801 5.06582 16.9359 11.0058 16.9409 11.2083C16.4534 15.27 13.5801 15.5275 13.0517 15.7033C12.8259 15.7783 10.7301 16.3175 8.0984 16.1417Z" fill="white"></path>
    <path d="M9.18521 3.58084C8.86437 3.58084 8.86437 4.08084 9.18521 4.08501C11.6744 4.10417 13.7244 5.83917 13.7469 9.02167C13.7469 9.35751 14.2385 9.35334 14.2344 9.01751H14.2335C14.2069 5.58834 11.9685 3.60001 9.18521 3.58084Z" fill="white"></path>
    <path d="M12.4592 8.49417C12.4517 8.82583 12.9425 8.84167 12.9467 8.50583C12.9875 6.615 11.8217 5.0575 9.63086 4.89333C9.31003 4.87 9.2767 5.37417 9.5967 5.3975C11.4967 5.54167 12.4975 6.83833 12.4592 8.49417Z" fill="white"></path>
    <path d="M11.9343 10.645C11.5226 10.4066 11.1034 10.555 10.9301 10.7891L10.5676 11.2583C10.3834 11.4966 10.0393 11.465 10.0393 11.465C7.5276 10.8008 6.85593 8.17247 6.85593 8.17247C6.85593 8.17247 6.8251 7.81664 7.0551 7.62581L7.50843 7.25081C7.7351 7.07081 7.87843 6.63747 7.6476 6.21164C7.03093 5.09747 6.61676 4.71331 6.40593 4.41831C6.18426 4.14081 5.85093 4.07831 5.50426 4.26581H5.49676C4.77593 4.68747 3.98676 5.47664 4.23926 6.28914C4.6701 7.14581 5.46176 9.87664 7.9851 11.94C9.17093 12.9158 11.0476 13.9158 11.8443 14.1466L11.8518 14.1583C12.6368 14.42 13.4001 13.6 13.8076 12.8575V12.8516C13.9884 12.4925 13.9284 12.1525 13.6643 11.93C13.1959 11.4733 12.4893 10.9691 11.9343 10.645Z" fill="white"></path>
    <path d="M9.97412 6.7533C10.775 6.79996 11.1633 7.2183 11.205 8.07746C11.22 8.4133 11.7075 8.38996 11.6925 8.05413C11.6391 6.93246 11.0541 6.30746 10.0008 6.24913C9.67996 6.22996 9.64996 6.73413 9.97412 6.7533Z" fill="white"></path>
  </symbol>
  <symbol fill="none" xmlns="http://www.w3.org/2000/svg" viewBox="0 0 40 14" id="visa">
    <path d="M17.35 13.3H14.1L16.1 0.75H19.35L17.35 13.3Z" fill="white"></path>
    <path d="M29.1 1.05C28.15 0.7 27.2 0.5 26.2 0.5C23 0.5 20.75 2.2 20.75 4.65C20.75 6.45 22.35 7.45 23.6 8.05C24.85 8.65 25.3 9.05 25.3 9.6C25.3 10.45 24.3 10.85 23.35 10.85C22.3 10.9 21.25 10.65 20.3 10.2L19.8 10L19.35 12.8C20.5 13.25 21.75 13.45 22.95 13.45C26.35 13.45 28.55 11.75 28.6 9.15C28.6 7.7 27.75 6.65 25.9 5.75C24.75 5.2 24.05 4.8 24.05 4.2C24.05 3.6 24.65 3.1 25.9 3.1C26.75 3.1 27.55 3.25 28.3 3.6L28.6 3.75L29.1 1.05Z" fill="white"></path>
    <path d="M33.4 8.85002L34.7 5.35002C34.7 5.35002 34.95 4.60002 35.1 4.15002L35.3 5.25002C35.3 5.25002 35.9 8.25002 36.05 8.85002H33.4ZM37.4 0.750016H34.9C34.15 0.650016 33.45 1.10002 33.2 1.80002L28.4 13.3H31.8L32.5 11.4H36.65C36.75 11.85 37.05 13.3 37.05 13.3H40.05L37.4 0.750016Z" fill="white"></path>
    <path d="M11.4 0.75L8.25002 9.3L7.90002 7.55C7.10002 5.3 5.50002 3.45 3.40002 2.3L6.30002 13.25H9.75002L14.85 0.75H11.4Z" fill="white"></path>
    <path d="M5.25 0.75H0.05L0 1C4.05 2.05 6.75 4.55 7.85 7.55L6.75 1.8C6.55 1 6 0.8 5.25 0.75Z" fill="white"></path>
  </symbol>
  <symbol fill="none" xmlns="http://www.w3.org/2000/svg" viewBox="0 0 20 14" id="youtube">
    <g clip-path="url(#clip0_6:124)">
      <path fill-rule="evenodd" clip-rule="evenodd" d="M17.8253 0.428235C18.682 0.658824 19.3574 1.33412 19.5881 2.19059C20.0164 3.75529 19.9999 7.01647 19.9999 7.01647C19.9999 7.01647 19.9999 10.2612 19.5881 11.8259C19.3574 12.6824 18.682 13.3576 17.8253 13.5882C16.2602 14 9.99996 14 9.99996 14C9.99996 14 3.75616 14 2.17462 13.5718C1.31795 13.3412 0.642501 12.6659 0.41186 11.8094C0 10.2612 0 7 0 7C0 7 0 3.75529 0.41186 2.19059C0.642501 1.33412 1.33443 0.642353 2.17462 0.411765C3.73969 0 9.99996 0 9.99996 0C9.99996 0 16.2602 0 17.8253 0.428235ZM8.00657 4.00235L13.2125 7L8.00657 9.99765V4.00235Z" fill="white"></path>
    </g>
    <defs>
      <clipPath id="clip0_6:124">
        <rect width="20" height="14" fill="white"></rect>
      </clipPath>
    </defs>
  </symbol>
</svg>