<svg width="38" height="30" viewBox="0 0 38 30" fill="none" xmlns="http://www.w3.org/2000/svg">
<path fill-rule="evenodd" clip-rule="evenodd" d="M3.18583 12.9147C13.0307 8.68143 19.5946 5.89035 22.8776 4.54148C32.2545 0.691534 34.2035 0.0222098 35.4731 0.000210121C35.7527 -0.00445648 36.3773 0.0668764 36.7819 0.388206C37.1229 0.661535 37.2175 1.03153 37.262 1.29086C37.3307 1.7247 37.3497 2.1648 37.3188 2.60284C36.8102 7.87344 34.612 20.6666 33.493 26.5679C33.0203 29.0652 32.0877 29.9012 31.1855 29.9852C29.227 30.1631 27.7359 28.7058 25.8362 27.4765C22.8648 25.5539 21.1859 24.3566 18.3009 22.4799C14.9669 20.3113 17.1286 19.1193 19.0283 17.1713C19.5253 16.6613 28.1654 8.90476 28.3322 8.2001C28.3531 8.1121 28.3727 7.78411 28.1749 7.61078C27.977 7.43745 27.6866 7.49678 27.4759 7.54411C27.1779 7.61078 22.4303 10.7085 13.2333 16.8373C11.8854 17.7506 10.6648 18.1951 9.5717 18.1706C8.36557 18.1446 6.0465 17.4973 4.3224 16.944C2.20796 16.2653 0.527077 15.9067 0.675649 14.7547C0.750835 14.1556 1.58756 13.5423 3.18583 12.9147Z" fill="#FAF9F8"/>
</svg>
