<svg width="33" height="32" viewBox="0 0 33 32" fill="none" xmlns="http://www.w3.org/2000/svg">
<path fill-rule="evenodd" clip-rule="evenodd" d="M16.4163 0C7.61209 0 0.500977 7.14894 0.500977 16C0.500977 18.7234 1.17823 21.4468 2.53272 23.8298L0.500977 31.1489C0.500977 31.3191 0.500977 31.6596 0.670289 31.8298C0.839601 32 1.00891 32 1.17823 32H1.34754L8.96659 30.1277C11.337 31.3191 13.8766 32 16.5856 32C25.3899 32 32.501 24.8511 32.501 16C32.501 7.14894 25.2206 0 16.4163 0ZM24.374 21.617C24.0354 22.6383 22.3422 23.4894 21.665 23.4894C20.9877 23.6596 20.1412 23.6596 19.1253 23.3192C18.4481 23.1489 17.7708 22.8085 16.7549 22.4681C12.6915 20.766 9.98246 16.6809 9.81315 16.3404C9.64383 16 8.12002 14.1277 8.12002 12.0851C8.12002 10.0426 9.1359 9.02128 9.47452 8.68085C9.98246 8.51064 10.3211 8.34043 10.6597 8.34043C10.829 8.34043 11.1676 8.34043 11.337 8.34043C11.5063 8.34043 11.8449 8.17021 12.1835 9.02128C12.5221 9.87234 13.3687 11.9149 13.3687 12.0851C13.538 12.2553 13.538 12.5957 13.3687 12.766C13.1994 13.1064 13.1994 13.2766 13.0301 13.4468C12.8608 13.617 12.5221 13.9574 12.3528 14.1277C12.1835 14.2979 12.0142 14.4681 12.1835 14.9787C12.3528 15.3191 13.1994 16.6809 14.3846 17.8723C15.9084 19.234 17.2629 19.7447 17.6015 19.9149C17.9401 20.0851 18.2788 20.0851 18.4481 19.7447C18.6174 19.4043 19.4639 18.5532 19.8026 18.2128C20.1412 17.8723 20.3105 17.8723 20.6491 18.0426C20.9877 18.2128 23.0195 19.234 23.5274 19.4043C23.8661 19.5745 24.2047 19.7447 24.374 19.9149C24.7126 19.9149 24.7126 20.766 24.374 21.617Z" fill="#FAF9F8"/>
</svg>
